g default
v 4.242640 -7.500000 -4.242640
v 0.000000 -7.500000 -5.999999
v -4.242640 -7.500000 -4.242640
v -5.999999 -7.500000 0.000000
v -4.242640 -7.500000 4.242640
v 0.000000 -7.500000 6.000000
v 4.242640 -7.500000 4.242640
v 6.000000 -7.500000 0.000000
v 0.000000 7.500000 0.000000
v 0.000000 -7.500000 0.000000
vt 0.853553 -0.853553
vt 0.500000 -1.000000
vt 0.146447 -0.853553
vt 0.000000 -0.500000
vt 0.146447 -0.146447
vt 0.500000 -0.000000
vt 0.853553 -0.146447
vt 1.000000 -0.500000
vt 0.000000 0.000000
vt 0.125000 0.000000
vt 0.250000 0.000000
vt 0.375000 0.000000
vt 0.500000 0.000000
vt 0.625000 0.000000
vt 0.750000 0.000000
vt 0.875000 0.000000
vt 1.000000 0.000000
vt 0.500000 1.000000
vt 0.500000 -0.500000
vn 0.000000 -1.000000 0.000000
vn 0.000000 -1.000000 -0.000000
vn 0.000000 -1.000000 -0.000000
vn 0.000000 -1.000000 0.000000
vn 0.000000 -1.000000 0.000000
vn -0.000000 -1.000000 0.000000
vn -0.000000 -1.000000 0.000000
vn -0.000000 -1.000000 -0.000000
vn 0.000000 -1.000000 -0.000000
vn 0.358956 0.346639 -0.866598
vn 0.358956 0.346639 -0.866598
vn 0.358956 0.346639 -0.866598
vn -0.358956 0.346639 -0.866598
vn -0.358956 0.346639 -0.866598
vn -0.358956 0.346639 -0.866598
vn -0.866598 0.346639 -0.358956
vn -0.866598 0.346639 -0.358956
vn -0.866598 0.346639 -0.358956
vn -0.866598 0.346639 0.358956
vn -0.866598 0.346639 0.358956
vn -0.866598 0.346639 0.358956
vn -0.358956 0.346639 0.866598
vn -0.358956 0.346639 0.866598
vn -0.358956 0.346639 0.866598
vn 0.358956 0.346639 0.866598
vn 0.358956 0.346639 0.866598
vn 0.358956 0.346639 0.866598
vn 0.866598 0.346639 0.358957
vn 0.866598 0.346639 0.358957
vn 0.866598 0.346639 0.358957
vn 0.866598 0.346639 -0.358957
vn 0.866598 0.346639 -0.358957
vn 0.866598 0.346639 -0.358957
s 1
usemtl initialShadingGroup
f 10/19/1 1/1/2 8/8/3
f 10/19/1 8/8/3 7/7/4
f 10/19/1 7/7/4 6/6/5
f 10/19/1 6/6/5 5/5/6
f 10/19/1 5/5/6 4/4/7
f 10/19/1 4/4/7 3/3/8
f 10/19/1 3/3/8 2/2/9
f 10/19/1 2/2/9 1/1/2
s off
f 1/9/10 2/10/11 9/18/12
f 2/10/13 3/11/14 9/18/15
f 3/11/16 4/12/17 9/18/18
f 4/12/19 5/13/20 9/18/21
f 5/13/22 6/14/23 9/18/24
f 6/14/25 7/15/26 9/18/27
f 7/15/28 8/16/29 9/18/30
f 8/16/31 1/17/32 9/18/33
