g default
v 0.000001 0.000000 -8.000000
v -8.000000 0.000000 -0.000001
v -0.000000 0.000000 8.000000
v 8.000000 0.000000 0.000000
v 0.000000 8.000000 0.000000
vt 0.000000 0.000000
vt 0.250000 0.000000
vt 0.500000 0.000000
vt 0.750000 0.000000
vt 1.000000 0.000000
vt 0.500000 1.000000
vn -0.577350 0.577350 -0.577350
vn -0.577350 0.577350 -0.577350
vn -0.577350 0.577350 -0.577350
vn -0.577350 0.577350 0.577350
vn -0.577350 0.577350 0.577350
vn -0.577350 0.577350 0.577350
vn 0.577350 0.577350 0.577350
vn 0.577350 0.577350 0.577350
vn 0.577350 0.577350 0.577350
vn 0.577350 0.577350 -0.577350
vn 0.577350 0.577350 -0.577350
vn 0.577350 0.577350 -0.577350
s off
usemtl initialShadingGroup
f 1/1/1 2/2/2 5/6/3
f 2/2/4 3/3/5 5/6/6
f 3/3/7 4/4/8 5/6/9
f 4/4/10 1/5/11 5/6/12
v -0.000001 0.000000 -8.000000
v 8.000000 -0.000000 -0.000001
v 0.000000 -0.000000 8.000000
v -8.000000 0.000000 0.000000
v -0.000000 -8.000000 0.000000
vt 0.000000 0.000000
vt 0.250000 0.000000
vt 0.500000 0.000000
vt 0.750000 0.000000
vt 1.000000 0.000000
vt 0.500000 1.000000
vn 0.577350 -0.577350 -0.577350
vn 0.577350 -0.577350 -0.577350
vn 0.577350 -0.577350 -0.577350
vn 0.577350 -0.577350 0.577350
vn 0.577350 -0.577350 0.577350
vn 0.577350 -0.577350 0.577350
vn -0.577350 -0.577350 0.577350
vn -0.577350 -0.577350 0.577350
vn -0.577350 -0.577350 0.577350
vn -0.577350 -0.577350 -0.577350
vn -0.577350 -0.577350 -0.577350
vn -0.577350 -0.577350 -0.577350
s off
usemtl initialShadingGroup
f 6/7/13 7/8/14 10/12/15
f 7/8/16 8/9/17 10/12/18
f 8/9/19 9/10/20 10/12/21
f 9/10/22 6/11/23 10/12/24
