g default
v -5.000000 -3.535534 -3.535534
v 5.000000 -3.535534 -3.535534
v -5.000000 3.535534 3.535534
v 5.000000 3.535534 3.535534
v 0.000000 0.000000 0.000000
vt 0.000000 0.000000
vt 1.000000 0.000000
vt 0.000000 1.000000
vt 1.000000 1.000000
vt 0.500000 0.500000
vn 0.000000 -0.707107 0.707107
vn 0.000000 -0.707107 0.707107
vn 0.000000 -0.707107 0.707107
vn 0.000000 -0.707107 0.707107
vn 0.000000 -0.707107 0.707107
s 1
usemtl initialShadingGroup
f 5/5/1 1/1/2 2/2/3
#f 5/5/1 2/2/3 4/4/4
#f 5/5/1 4/4/4 3/3/5
#f 5/5/1 3/3/5 1/1/2
