g default
v -7.071067 7.071068 -7.071069
v -7.071068 7.071068 7.071067
v 7.071067 7.071068 7.071068
v 7.071068 7.071068 -7.071068
v 0.000000 17.071068 0.000000
vn -0.816497 0.577350 -0.000000
vn -0.816497 0.577350 -0.000000
vn -0.816497 0.577350 -0.000000
vn -0.000000 0.577350 0.816497
vn -0.000000 0.577350 0.816497
vn -0.000000 0.577350 0.816497
vn 0.816497 0.577350 0.000000
vn 0.816497 0.577350 0.000000
vn 0.816497 0.577350 0.000000
vn 0.000000 0.577350 -0.816497
vn 0.000000 0.577350 -0.816497
vn 0.000000 0.577350 -0.816497
s off
usemtl initialShadingGroup
f 1/1/1 2/1/2 5/1/3
f 2/1/4 3/1/5 5/1/6
f 3/1/7 4/1/8 5/1/9
f 4/1/10 1/1/11 5/1/12
v -7.071068 -7.071067 -7.071069
v -7.071068 -7.071068 7.071067
v -7.071067 7.071067 7.071068
v -7.071068 7.071068 -7.071068
v -17.071068 0.000000 0.000000
vn -0.577350 -0.816497 -0.000000
vn -0.577350 -0.816497 -0.000000
vn -0.577350 -0.816497 -0.000000
vn -0.577350 -0.000000 0.816497
vn -0.577350 -0.000000 0.816497
vn -0.577350 -0.000000 0.816497
vn -0.577350 0.816497 0.000000
vn -0.577350 0.816497 0.000000
vn -0.577350 0.816497 0.000000
vn -0.577350 0.000000 -0.816497
vn -0.577350 0.000000 -0.816497
vn -0.577350 0.000000 -0.816497
s off
usemtl initialShadingGroup
f 6/1/13 7/1/14 10/1/15
f 7/1/16 8/1/17 10/1/18
f 8/1/19 9/1/20 10/1/21
f 9/1/22 6/1/23 10/1/24
v 7.071067 -7.071068 -7.071069
v 7.071068 -7.071068 7.071067
v -7.071067 -7.071068 7.071068
v -7.071068 -7.071068 -7.071068
v -0.000000 -17.071068 0.000000
vn 0.816497 -0.577350 -0.000000
vn 0.816497 -0.577350 -0.000000
vn 0.816497 -0.577350 -0.000000
vn 0.000000 -0.577350 0.816497
vn 0.000000 -0.577350 0.816497
vn 0.000000 -0.577350 0.816497
vn -0.816497 -0.577350 0.000000
vn -0.816497 -0.577350 0.000000
vn -0.816497 -0.577350 0.000000
vn -0.000000 -0.577350 -0.816497
vn -0.000000 -0.577350 -0.816497
vn -0.000000 -0.577350 -0.816497
s off
usemtl initialShadingGroup
f 11/1/25 12/1/26 15/1/27
f 12/1/28 13/1/29 15/1/30
f 13/1/31 14/1/32 15/1/33
f 14/1/34 11/1/35 15/1/36
v 7.071068 7.071067 -7.071069
v 7.071068 7.071068 7.071067
v 7.071068 -7.071068 7.071068
v 7.071068 -7.071068 -7.071068
v 17.071068 0.000000 0.000000
vn 0.577350 0.816497 -0.000000
vn 0.577350 0.816497 -0.000000
vn 0.577350 0.816497 -0.000000
vn 0.577350 0.000000 0.816497
vn 0.577350 0.000000 0.816497
vn 0.577350 0.000000 0.816497
vn 0.577350 -0.816497 0.000000
vn 0.577350 -0.816497 0.000000
vn 0.577350 -0.816497 0.000000
vn 0.577350 -0.000000 -0.816497
vn 0.577350 -0.000000 -0.816497
vn 0.577350 -0.000000 -0.816497
s off
usemtl initialShadingGroup
f 16/1/37 17/1/38 20/1/39
f 17/1/40 18/1/41 20/1/42
f 18/1/43 19/1/44 20/1/45
f 19/1/46 16/1/47 20/1/48
v -7.071067 7.071069 7.071068
v -7.071068 -7.071067 7.071068
v 7.071067 -7.071068 7.071068
v 7.071068 7.071068 7.071068
v 0.000000 0.000000 17.071068
vn -0.816497 0.000000 0.577350
vn -0.816497 0.000000 0.577350
vn -0.816497 0.000000 0.577350
vn -0.000000 -0.816497 0.577350
vn -0.000000 -0.816497 0.577350
vn -0.000000 -0.816497 0.577350
vn 0.816497 -0.000000 0.577350
vn 0.816497 -0.000000 0.577350
vn 0.816497 -0.000000 0.577350
vn 0.000000 0.816497 0.577350
vn 0.000000 0.816497 0.577350
vn 0.000000 0.816497 0.577350
s off
usemtl initialShadingGroup
f 21/1/49 22/1/50 25/1/51
f 22/1/52 23/1/53 25/1/54
f 23/1/55 24/1/56 25/1/57
f 24/1/58 21/1/59 25/1/60
v -7.071067 -7.071069 -7.071068
v -7.071068 7.071067 -7.071067
v 7.071067 7.071068 -7.071067
v 7.071068 -7.071068 -7.071068
v 0.000000 0.000000 -17.071068
vn -0.816497 -0.000000 -0.577350
vn -0.816497 -0.000000 -0.577350
vn -0.816497 -0.000000 -0.577350
vn -0.000000 0.816497 -0.577350
vn -0.000000 0.816497 -0.577350
vn -0.000000 0.816497 -0.577350
vn 0.816497 0.000000 -0.577350
vn 0.816497 0.000000 -0.577350
vn 0.816497 0.000000 -0.577350
vn 0.000000 -0.816497 -0.577350
vn 0.000000 -0.816497 -0.577350
vn 0.000000 -0.816497 -0.577350
s off
usemtl initialShadingGroup
f 26/1/61 27/1/62 30/1/63
f 27/1/64 28/1/65 30/1/66
f 28/1/67 29/1/68 30/1/69
f 29/1/70 26/1/71 30/1/72
