g default
v 0.000001 -5.000000 -10.000000
v -10.000000 -5.000000 -0.000001
v -0.000000 -5.000000 10.000000
v 10.000000 -5.000000 0.000000
v 0.000001 0.000000 -10.000000
v -10.000000 0.000000 -0.000001
v -0.000000 0.000000 10.000000
v 10.000000 0.000000 0.000000
v -4.999999 -2.500000 -5.000001
v -5.000000 -2.500000 5.000000
v 5.000000 -2.500000 5.000000
v 5.000000 -2.500000 -5.000000
v 0.000000 -5.000000 -0.000000
vt 0.000000 0.159155
vt 0.250000 0.159155
vt 0.500000 0.159155
vt 0.750000 0.159155
vt 1.000000 0.159155
vt 0.000000 0.238732
vt 0.250000 0.238732
vt 0.500000 0.238732
vt 0.750000 0.238732
vt 1.000000 0.238732
vt 0.125000 0.198944
vt 0.375000 0.198944
vt 0.625000 0.198944
vt 0.875000 0.198944
vt 0.375000 0.159155
vn -0.707107 0.000000 -0.707107
vn -0.707107 -0.000000 -0.707107
vn -0.707107 -0.000000 -0.707107
vn -0.707107 0.000000 -0.707107
vn -0.707107 0.000000 -0.707107
vn -0.707107 0.000000 0.707107
vn -0.707107 -0.000000 0.707107
vn -0.707107 -0.000000 0.707107
vn -0.707107 0.000000 0.707107
vn -0.707107 0.000000 0.707107
vn 0.707107 0.000000 0.707107
vn 0.707107 -0.000000 0.707107
vn 0.707107 0.000000 0.707107
vn 0.707107 0.000000 0.707107
vn 0.707107 0.000000 0.707107
vn 0.707107 0.000000 -0.707107
vn 0.707107 0.000000 -0.707107
vn 0.707107 0.000000 -0.707107
vn 0.707107 0.000000 -0.707107
vn 0.707107 0.000000 -0.707107
vn 0.000000 -1.000000 0.000000
vn 0.000000 -1.000000 0.000000
vn 0.000000 -1.000000 0.000000
vn 0.000000 -1.000000 0.000000
vn 0.000000 -1.000000 0.000000
s 1
usemtl initialShadingGroup
f 9/11/1 1/1/2 2/2/3
f 9/11/1 2/2/3 6/7/4
f 9/11/1 6/7/4 5/6/5
f 9/11/1 5/6/5 1/1/2
s 2
f 10/12/6 2/2/7 3/3/8
f 10/12/6 3/3/8 7/8/9
f 10/12/6 7/8/9 6/7/10
f 10/12/6 6/7/10 2/2/7
s 3
f 11/13/11 3/3/12 4/4/13
f 11/13/11 4/4/13 8/9/14
f 11/13/11 8/9/14 7/8/15
f 11/13/11 7/8/15 3/3/12
s 4
f 12/14/16 4/4/17 1/5/18
f 12/14/16 1/5/18 5/10/19
f 12/14/16 5/10/19 8/9/20
f 12/14/16 8/9/20 4/4/17
s 5
f 13/15/21 1/1/22 4/2/23
f 13/15/21 4/2/23 3/3/24
f 13/15/21 3/3/24 2/4/25
f 13/15/21 2/4/25 1/1/22
v 0.000001 0.000000 -10.000000
v -10.000000 0.000000 -0.000001
v -0.000000 0.000000 10.000000
v 10.000000 0.000000 0.000000
v 0.000001 5.000000 -10.000000
v -10.000000 5.000000 -0.000001
v -0.000000 5.000000 10.000000
v 10.000000 5.000000 0.000000
v -4.999999 2.500000 -5.000001
v -5.000000 2.500000 5.000000
v 5.000000 2.500000 5.000000
v 5.000000 2.500000 -5.000000
v 0.000000 5.000000 -0.000000
vt 0.000000 0.159155
vt 0.250000 0.159155
vt 0.500000 0.159155
vt 0.750000 0.159155
vt 1.000000 0.159155
vt 0.000000 0.238732
vt 0.250000 0.238732
vt 0.500000 0.238732
vt 0.750000 0.238732
vt 1.000000 0.238732
vt 0.125000 0.198944
vt 0.375000 0.198944
vt 0.625000 0.198944
vt 0.875000 0.198944
vt 0.375000 0.238732
vn -0.707107 0.000000 -0.707107
vn -0.707107 -0.000000 -0.707107
vn -0.707107 -0.000000 -0.707107
vn -0.707107 0.000000 -0.707107
vn -0.707107 0.000000 -0.707107
vn -0.707107 0.000000 0.707107
vn -0.707107 -0.000000 0.707107
vn -0.707107 -0.000000 0.707107
vn -0.707107 0.000000 0.707107
vn -0.707107 0.000000 0.707107
vn 0.707107 0.000000 0.707107
vn 0.707107 -0.000000 0.707107
vn 0.707107 0.000000 0.707107
vn 0.707107 0.000000 0.707107
vn 0.707107 0.000000 0.707107
vn 0.707107 0.000000 -0.707107
vn 0.707107 0.000000 -0.707107
vn 0.707107 0.000000 -0.707107
vn 0.707107 0.000000 -0.707107
vn 0.707107 0.000000 -0.707107
vn 0.000000 1.000000 -0.000000
vn 0.000000 1.000000 -0.000000
vn 0.000000 1.000000 -0.000000
vn 0.000000 1.000000 -0.000000
vn 0.000000 1.000000 -0.000000
s 1
usemtl initialShadingGroup
f 22/26/26 14/16/27 15/17/28
f 22/26/26 15/17/28 19/22/29
f 22/26/26 19/22/29 18/21/30
f 22/26/26 18/21/30 14/16/27
s 2
f 23/27/31 15/17/32 16/18/33
f 23/27/31 16/18/33 20/23/34
f 23/27/31 20/23/34 19/22/35
f 23/27/31 19/22/35 15/17/32
s 3
f 24/28/36 16/18/37 17/19/38
f 24/28/36 17/19/38 21/24/39
f 24/28/36 21/24/39 20/23/40
f 24/28/36 20/23/40 16/18/37
s 4
f 25/29/41 17/19/42 14/20/43
f 25/29/41 14/20/43 18/25/44
f 25/29/41 18/25/44 21/24/45
f 25/29/41 21/24/45 17/19/42
s 5
f 26/30/46 18/21/47 19/22/48
f 26/30/46 19/22/48 20/23/49
f 26/30/46 20/23/49 21/24/50
f 26/30/46 21/24/50 18/21/47
v 0.000001 5.000000 -10.000000
v -10.000000 5.000000 -0.000001
v -0.000000 5.000000 10.000000
v 10.000000 5.000000 0.000000
v 0.000000 15.000000 0.000000
vt 0.000000 0.000000
vt 0.250000 0.000000
vt 0.500000 0.000000
vt 0.750000 0.000000
vt 1.000000 0.000000
vt 0.500000 1.000000
vn -0.577350 0.577350 -0.577350
vn -0.577350 0.577350 -0.577350
vn -0.577350 0.577350 -0.577350
vn -0.577350 0.577350 0.577350
vn -0.577350 0.577350 0.577350
vn -0.577350 0.577350 0.577350
vn 0.577350 0.577350 0.577350
vn 0.577350 0.577350 0.577350
vn 0.577350 0.577350 0.577350
vn 0.577350 0.577350 -0.577350
vn 0.577350 0.577350 -0.577350
vn 0.577350 0.577350 -0.577350
s off
usemtl initialShadingGroup
f 27/31/51 28/32/52 31/36/53
f 28/32/54 29/33/55 31/36/56
f 29/33/57 30/34/58 31/36/59
f 30/34/60 27/35/61 31/36/62
