g default
v -0.879634 -3.000000 -2.170414
v -0.879634 -3.000000 2.170414
v 2.879634 -3.000000 -0.000000
v 0.000000 9.000000 0.000000
vt 0.250000 -0.933013
vt 0.250000 -0.066987
vt 1.000000 -0.500000
vt 0.000000 0.000000
vt 0.333333 0.000000
vt 0.666667 0.000000
vt 1.000000 0.000000
vt 0.500000 1.000000
vn 0.000000 -1.000000 0.000000
vn 0.000000 -1.000000 0.000000
vn 0.000000 -1.000000 0.000000
vn -0.997324 0.073107 -0.000000
vn -0.997324 0.073107 -0.000000
vn -0.997324 0.073107 -0.000000
vn 0.496439 0.119130 0.859858
vn 0.496439 0.119130 0.859858
vn 0.496439 0.119130 0.859858
vn 0.496439 0.119130 -0.859858
vn 0.496439 0.119130 -0.859858
vn 0.496439 0.119130 -0.859858
s off
usemtl initialShadingGroup
f 1/1/1 3/3/2 2/2/3
f 1/4/4 2/5/5 4/8/6
f 2/5/7 3/6/8 4/8/9
f 3/6/10 1/7/11 4/8/12
