v 0 0.5 0
vn 0 1 0
v 0 -0.5 0
vn 0 -1 0
v 1.73205 0.5 0
vn 0.433013 0.5 0
v 1.5 0.5 0.433013
vn 0.375 0.5 0.433013
v 0.866025 0.5 0.75
vn 0.216506 0.5 0.75
v 2.79821e-15 0.5 0.866025
vn 6.99551e-16 0.5 0.866025
v -0.866025 0.5 0.75
vn -0.216506 0.5 0.75
v -1.5 0.5 0.433013
vn -0.375 0.5 0.433013
v -1.73205 0.5 2.79821e-15
vn -0.433013 0.5 2.79821e-15
v -1.5 0.5 -0.433013
vn -0.375 0.5 -0.433013
v -0.866025 0.5 -0.75
vn -0.216506 0.5 -0.75
v -8.01002e-15 0.5 -0.866025
vn -2.00251e-15 0.5 -0.866025
v 0.866025 0.5 -0.75
vn 0.216506 0.5 -0.75
v 1.5 0.5 -0.433013
vn 0.375 0.5 -0.433013
v 1.93185 0.258819 0
vn 0.482963 0.258819 0
v 1.67303 0.258819 0.482963
vn 0.418258 0.258819 0.482963
v 0.965926 0.258819 0.836516
vn 0.241481 0.258819 0.836516
v 3.12099e-15 0.258819 0.965926
vn 7.80248e-16 0.258819 0.965926
v -0.965926 0.258819 0.836516
vn -0.241481 0.258819 0.836516
v -1.67303 0.258819 0.482963
vn -0.418258 0.258819 0.482963
v -1.93185 0.258819 3.12099e-15
vn -0.482963 0.258819 3.12099e-15
v -1.67303 0.258819 -0.482963
vn -0.418258 0.258819 -0.482963
v -0.965926 0.258819 -0.836516
vn -0.241481 0.258819 -0.836516
v -8.93402e-15 0.258819 -0.965926
vn -2.23351e-15 0.258819 -0.965926
v 0.965926 0.258819 -0.836516
vn 0.241481 0.258819 -0.836516
v 1.67303 0.258819 -0.482963
vn 0.418258 0.258819 -0.482963
v 2 1.61554e-15 0
vn 0.5 1.61554e-15 0
v 1.73205 1.61554e-15 0.5
vn 0.433013 1.61554e-15 0.5
v 1 1.61554e-15 0.866025
vn 0.25 1.61554e-15 0.866025
v 3.23109e-15 1.61554e-15 1
vn 8.07772e-16 1.61554e-15 1
v -1 1.61554e-15 0.866025
vn -0.25 1.61554e-15 0.866025
v -1.73205 1.61554e-15 0.5
vn -0.433013 1.61554e-15 0.5
v -2 1.61554e-15 3.23109e-15
vn -0.5 1.61554e-15 3.23109e-15
v -1.73205 1.61554e-15 -0.5
vn -0.433013 1.61554e-15 -0.5
v -1 1.61554e-15 -0.866025
vn -0.25 1.61554e-15 -0.866025
v -9.24918e-15 1.61554e-15 -1
vn -2.31229e-15 1.61554e-15 -1
v 1 1.61554e-15 -0.866025
vn 0.25 1.61554e-15 -0.866025
v 1.73205 1.61554e-15 -0.5
vn 0.433013 1.61554e-15 -0.5
v 1.93185 -0.258819 0
vn 0.482963 -0.258819 0
v 1.67303 -0.258819 0.482963
vn 0.418258 -0.258819 0.482963
v 0.965926 -0.258819 0.836516
vn 0.241481 -0.258819 0.836516
v 3.12099e-15 -0.258819 0.965926
vn 7.80248e-16 -0.258819 0.965926
v -0.965926 -0.258819 0.836516
vn -0.241481 -0.258819 0.836516
v -1.67303 -0.258819 0.482963
vn -0.418258 -0.258819 0.482963
v -1.93185 -0.258819 3.12099e-15
vn -0.482963 -0.258819 3.12099e-15
v -1.67303 -0.258819 -0.482963
vn -0.418258 -0.258819 -0.482963
v -0.965926 -0.258819 -0.836516
vn -0.241481 -0.258819 -0.836516
v -8.93402e-15 -0.258819 -0.965926
vn -2.23351e-15 -0.258819 -0.965926
v 0.965926 -0.258819 -0.836516
vn 0.241481 -0.258819 -0.836516
v 1.67303 -0.258819 -0.482963
vn 0.418258 -0.258819 -0.482963
v 1.73205 -0.5 0
vn 0.433013 -0.5 0
v 1.5 -0.5 0.433013
vn 0.375 -0.5 0.433013
v 0.866025 -0.5 0.75
vn 0.216506 -0.5 0.75
v 2.79821e-15 -0.5 0.866025
vn 6.99551e-16 -0.5 0.866025
v -0.866025 -0.5 0.75
vn -0.216506 -0.5 0.75
v -1.5 -0.5 0.433013
vn -0.375 -0.5 0.433013
v -1.73205 -0.5 2.79821e-15
vn -0.433013 -0.5 2.79821e-15
v -1.5 -0.5 -0.433013
vn -0.375 -0.5 -0.433013
v -0.866025 -0.5 -0.75
vn -0.216506 -0.5 -0.75
v -8.01002e-15 -0.5 -0.866025
vn -2.00251e-15 -0.5 -0.866025
v 0.866025 -0.5 -0.75
vn 0.216506 -0.5 -0.75
v 1.5 -0.5 -0.433013
vn 0.375 -0.5 -0.433013
f 1//1 4//1 3//1
f 1//1 5//1 4//1
f 1//1 6//1 5//1
f 1//1 7//1 6//1
f 1//1 8//1 7//1
f 1//1 9//1 8//1
f 1//1 10//1 9//1
f 1//1 11//1 10//1
f 1//1 12//1 11//1
f 1//1 13//1 12//1
f 1//1 14//1 13//1
f 1//1 3//1 14//1
f 2//2 51//2 52//2
f 2//2 52//2 53//2
f 2//2 53//2 54//2
f 2//2 54//2 55//2
f 2//2 55//2 56//2
f 2//2 56//2 57//2
f 2//2 57//2 58//2
f 2//2 58//2 59//2
f 2//2 59//2 60//2
f 2//2 60//2 61//2
f 2//2 61//2 62//2
f 2//2 62//2 51//2
f 3//3 4//4 15//15
f 15//15 4//4 16//16
f 4//4 5//5 16//16
f 16//16 5//5 17//17
f 5//5 6//6 17//17
f 17//17 6//6 18//18
f 6//6 7//7 18//18
f 18//18 7//7 19//19
f 7//7 8//8 19//19
f 19//19 8//8 20//20
f 8//8 9//9 20//20
f 20//20 9//9 21//21
f 9//9 10//10 21//21
f 21//21 10//10 22//22
f 10//10 11//11 22//22
f 22//22 11//11 23//23
f 11//11 12//12 23//23
f 23//23 12//12 24//24
f 12//12 13//13 24//24
f 24//24 13//13 25//25
f 13//13 14//14 25//25
f 25//25 14//14 26//26
f 14//14 3//3 26//26
f 26//26 3//3 15//15
f 15//15 16//16 27//27
f 27//27 16//16 28//28
f 16//16 17//17 28//28
f 28//28 17//17 29//29
f 17//17 18//18 29//29
f 29//29 18//18 30//30
f 18//18 19//19 30//30
f 30//30 19//19 31//31
f 19//19 20//20 31//31
f 31//31 20//20 32//32
f 20//20 21//21 32//32
f 32//32 21//21 33//33
f 21//21 22//22 33//33
f 33//33 22//22 34//34
f 22//22 23//23 34//34
f 34//34 23//23 35//35
f 23//23 24//24 35//35
f 35//35 24//24 36//36
f 24//24 25//25 36//36
f 36//36 25//25 37//37
f 25//25 26//26 37//37
f 37//37 26//26 38//38
f 26//26 15//15 38//38
f 38//38 15//15 27//27
f 27//27 28//28 39//39
f 39//39 28//28 40//40
f 28//28 29//29 40//40
f 40//40 29//29 41//41
f 29//29 30//30 41//41
f 41//41 30//30 42//42
f 30//30 31//31 42//42
f 42//42 31//31 43//43
f 31//31 32//32 43//43
f 43//43 32//32 44//44
f 32//32 33//33 44//44
f 44//44 33//33 45//45
f 33//33 34//34 45//45
f 45//45 34//34 46//46
f 34//34 35//35 46//46
f 46//46 35//35 47//47
f 35//35 36//36 47//47
f 47//47 36//36 48//48
f 36//36 37//37 48//48
f 48//48 37//37 49//49
f 37//37 38//38 49//49
f 49//49 38//38 50//50
f 38//38 27//27 50//50
f 50//50 27//27 39//39
f 39//39 40//40 51//51
f 51//51 40//40 52//52
f 40//40 41//41 52//52
f 52//52 41//41 53//53
f 41//41 42//42 53//53
f 53//53 42//42 54//54
f 42//42 43//43 54//54
f 54//54 43//43 55//55
f 43//43 44//44 55//55
f 55//55 44//44 56//56
f 44//44 45//45 56//56
f 56//56 45//45 57//57
f 45//45 46//46 57//57
f 57//57 46//46 58//58
f 46//46 47//47 58//58
f 58//58 47//47 59//59
f 47//47 48//48 59//59
f 59//59 48//48 60//60
f 48//48 49//49 60//60
f 60//60 49//49 61//61
f 49//49 50//50 61//61
f 61//61 50//50 62//62
f 50//50 39//39 62//62
f 62//62 39//39 51//51
