mtllib ./cornell_box.mtl

v -5.000000 -5.000000 5.000000
v 5.000000 -5.000000 5.000000
v -5.000000 5.000000 5.000000
v 5.000000 5.000000 5.000000
v -5.000000 5.000000 -5.000000
v 5.000000 5.000000 -5.000000
v -5.000000 -5.000000 -5.000000
v 5.000000 -5.000000 -5.000000
vt 0.000000 0.000000
vt 1.000000 0.000000
vt 0.000000 1.000000
vt 1.000000 1.000000
vt 0.000000 2.000000
vt 1.000000 2.000000
vt 0.000000 3.000000
vt 1.000000 3.000000
vt 0.000000 4.000000
vt 1.000000 4.000000
vt 2.000000 0.000000
vt 2.000000 1.000000
vt -1.000000 0.000000
vt -1.000000 1.000000
vn 0.000000 0.000000 -1.000000
vn 0.000000 0.000000 -1.000000
vn 0.000000 0.000000 -1.000000
vn 0.000000 0.000000 -1.000000
vn 0.000000 -1.000000 0.000000
vn 0.000000 -1.000000 0.000000
vn 0.000000 -1.000000 0.000000
vn 0.000000 -1.000000 0.000000
vn 0.000000 0.000000 1.000000
vn 0.000000 0.000000 1.000000
vn 0.000000 0.000000 1.000000
vn 0.000000 0.000000 1.000000
vn 0.000000 1.000000 0.000000
vn 0.000000 1.000000 0.000000
vn 0.000000 1.000000 0.000000
vn 0.000000 1.000000 0.000000
vn -1.000000 0.000000 0.000000
vn -1.000000 0.000000 0.000000
vn -1.000000 0.000000 0.000000
vn -1.000000 0.000000 0.000000
vn 1.000000 0.000000 0.000000
vn 1.000000 0.000000 0.000000
vn 1.000000 0.000000 0.000000
vn 1.000000 0.000000 0.000000

#s 1
#f 1/1/1 2/2/2 3/3/3
#f 2/2/2 4/4/4 3/3/3

s 2
usemtl up
f 3/3/5 5/5/7 4/4/6
f 4/4/6 5/5/7 6/6/8

s 3
usemtl center
f 5/5/9 7/7/11 6/6/10
f 6/6/10 7/7/11 8/8/12

s 4
usemtl down
f 7/7/13 1/9/15 8/8/14
f 8/8/14 1/9/15 2/10/16

s 5
usemtl right
f 2/2/17 4/4/19 8/11/18
f 8/11/18 4/4/19 6/12/20

s 6
usemtl left
f 7/13/21 5/14/23 1/1/22
f 1/1/22 5/14/23 3/3/24
