g default

mtllib ./plate.mtl

v 10.000000 10.000000 -10.000000
v -10.000000 10.000000 -10.000000
v -10.000000 -10.000000 -10.000000
v 10.000000 -10.000000 -10.000000

####################################################

v 0.000000 0,000000 0.000000

v 1.000000 0,000000 0.000000
v 1.000000 1,000000 0.000000

v 2.000000 0,000000 0.000000
v 2.000000 1,000000 0.000000

v 3.000000 0,000000 0.000000
v 3.000000 1,000000 0.000000

v 4.000000 0,000000 0.000000
v 4.000000 1,000000 0.000000

v 5.000000 0,000000 0.000000
v 5.000000 1,000000 0.000000

v 6.000000 0,000000 0.000000
v 6.000000 1,000000 0.000000

v 7.000000 0,000000 0.000000
v 7.000000 1,000000 0.000000

v 8.000000 0,000000 0.000000
v 8.000000 1,000000 0.000000

v 9.000000 0,000000 0.000000
v 9.000000 1,000000 0.000000

v 10.000000 0,000000 0.000000
v 10.000000 1,000000 0.000000

####################################################

vt 0.000000 0.000000
vt 1.000000 0.000000
vt 1.000000 1.000000
vt 0.000000 1.000000

####################################################

vn 0.000000 0.000000 1.000000
vn 0.000000 0.000000 -1.000000


####################################################

f 1/1/2 3/1/2 2/1/2

####################################################

usemtl face0
f 5/1/1 6/1/1 7/1/1
usemtl face1
f 6/1/1 8/1/1 9/1/1
usemtl face2
f 8/1/1 10/1/1 11/1/1
usemtl face3
f 10/1/1 12/1/1 13/1/1
usemtl face4
f 12/1/1 14/1/1 15/1/1
usemtl face5
f 14/1/1 16/1/1 17/1/1
usemtl face0
f 16/1/1 18/1/1 19/1/1
usemtl face0
f 18/1/1 20/1/1 21/1/1
