v 0 3 0
vn 0 1 0
v 0 -3 0
vn 0 -1 0
v 0.517638 2.89778 0
vn 0.12941 0.321975 0
v 0.448288 2.89778 0.12941
vn 0.112072 0.321975 0.12941
v 0.258819 2.89778 0.224144
vn 0.0647048 0.321975 0.224144
v 8.36267e-16 2.89778 0.258819
vn 2.09067e-16 0.321975 0.258819
v -0.258819 2.89778 0.224144
vn -0.0647048 0.321975 0.224144
v -0.448288 2.89778 0.12941
vn -0.112072 0.321975 0.12941
v -0.517638 2.89778 8.36267e-16
vn -0.12941 0.321975 8.36267e-16
v -0.448288 2.89778 -0.12941
vn -0.112072 0.321975 -0.12941
v -0.258819 2.89778 -0.224144
vn -0.0647048 0.321975 -0.224144
v -2.39386e-15 2.89778 -0.258819
vn -5.98466e-16 0.321975 -0.258819
v 0.258819 2.89778 -0.224144
vn 0.0647048 0.321975 -0.224144
v 0.448288 2.89778 -0.12941
vn 0.112072 0.321975 -0.12941
v 1 2.59808 0
vn 0.25 0.288675 0
v 0.866025 2.59808 0.25
vn 0.216506 0.288675 0.25
v 0.5 2.59808 0.433013
vn 0.125 0.288675 0.433013
v 1.61554e-15 2.59808 0.5
vn 4.03886e-16 0.288675 0.5
v -0.5 2.59808 0.433013
vn -0.125 0.288675 0.433013
v -0.866025 2.59808 0.25
vn -0.216506 0.288675 0.25
v -1 2.59808 1.61554e-15
vn -0.25 0.288675 1.61554e-15
v -0.866025 2.59808 -0.25
vn -0.216506 0.288675 -0.25
v -0.5 2.59808 -0.433013
vn -0.125 0.288675 -0.433013
v -4.62459e-15 2.59808 -0.5
vn -1.15615e-15 0.288675 -0.5
v 0.5 2.59808 -0.433013
vn 0.125 0.288675 -0.433013
v 0.866025 2.59808 -0.25
vn 0.216506 0.288675 -0.25
v 1.41421 2.12132 0
vn 0.353553 0.235702 0
v 1.22474 2.12132 0.353553
vn 0.306186 0.235702 0.353553
v 0.707107 2.12132 0.612372
vn 0.176777 0.235702 0.612372
v 2.28473e-15 2.12132 0.707107
vn 5.71181e-16 0.235702 0.707107
v -0.707107 2.12132 0.612372
vn -0.176777 0.235702 0.612372
v -1.22474 2.12132 0.353553
vn -0.306186 0.235702 0.353553
v -1.41421 2.12132 2.28473e-15
vn -0.353553 0.235702 2.28473e-15
v -1.22474 2.12132 -0.353553
vn -0.306186 0.235702 -0.353553
v -0.707107 2.12132 -0.612372
vn -0.176777 0.235702 -0.612372
v -6.54016e-15 2.12132 -0.707107
vn -1.63504e-15 0.235702 -0.707107
v 0.707107 2.12132 -0.612372
vn 0.176777 0.235702 -0.612372
v 1.22474 2.12132 -0.353553
vn 0.306186 0.235702 -0.353553
v 1.73205 1.5 0
vn 0.433013 0.166667 0
v 1.5 1.5 0.433013
vn 0.375 0.166667 0.433013
v 0.866025 1.5 0.75
vn 0.216506 0.166667 0.75
v 2.79821e-15 1.5 0.866025
vn 6.99551e-16 0.166667 0.866025
v -0.866025 1.5 0.75
vn -0.216506 0.166667 0.75
v -1.5 1.5 0.433013
vn -0.375 0.166667 0.433013
v -1.73205 1.5 2.79821e-15
vn -0.433013 0.166667 2.79821e-15
v -1.5 1.5 -0.433013
vn -0.375 0.166667 -0.433013
v -0.866025 1.5 -0.75
vn -0.216506 0.166667 -0.75
v -8.01002e-15 1.5 -0.866025
vn -2.00251e-15 0.166667 -0.866025
v 0.866025 1.5 -0.75
vn 0.216506 0.166667 -0.75
v 1.5 1.5 -0.433013
vn 0.375 0.166667 -0.433013
v 1.93185 0.776457 0
vn 0.482963 0.086273 0
v 1.67303 0.776457 0.482963
vn 0.418258 0.086273 0.482963
v 0.965926 0.776457 0.836516
vn 0.241481 0.086273 0.836516
v 3.12099e-15 0.776457 0.965926
vn 7.80248e-16 0.086273 0.965926
v -0.965926 0.776457 0.836516
vn -0.241481 0.086273 0.836516
v -1.67303 0.776457 0.482963
vn -0.418258 0.086273 0.482963
v -1.93185 0.776457 3.12099e-15
vn -0.482963 0.086273 3.12099e-15
v -1.67303 0.776457 -0.482963
vn -0.418258 0.086273 -0.482963
v -0.965926 0.776457 -0.836516
vn -0.241481 0.086273 -0.836516
v -8.93402e-15 0.776457 -0.965926
vn -2.23351e-15 0.086273 -0.965926
v 0.965926 0.776457 -0.836516
vn 0.241481 0.086273 -0.836516
v 1.67303 0.776457 -0.482963
vn 0.418258 0.086273 -0.482963
v 2 4.84663e-15 0
vn 0.5 5.38515e-16 0
v 1.73205 4.84663e-15 0.5
vn 0.433013 5.38515e-16 0.5
v 1 4.84663e-15 0.866025
vn 0.25 5.38515e-16 0.866025
v 3.23109e-15 4.84663e-15 1
vn 8.07772e-16 5.38515e-16 1
v -1 4.84663e-15 0.866025
vn -0.25 5.38515e-16 0.866025
v -1.73205 4.84663e-15 0.5
vn -0.433013 5.38515e-16 0.5
v -2 4.84663e-15 3.23109e-15
vn -0.5 5.38515e-16 3.23109e-15
v -1.73205 4.84663e-15 -0.5
vn -0.433013 5.38515e-16 -0.5
v -1 4.84663e-15 -0.866025
vn -0.25 5.38515e-16 -0.866025
v -9.24918e-15 4.84663e-15 -1
vn -2.31229e-15 5.38515e-16 -1
v 1 4.84663e-15 -0.866025
vn 0.25 5.38515e-16 -0.866025
v 1.73205 4.84663e-15 -0.5
vn 0.433013 5.38515e-16 -0.5
v 1.93185 -0.776457 0
vn 0.482963 -0.086273 0
v 1.67303 -0.776457 0.482963
vn 0.418258 -0.086273 0.482963
v 0.965926 -0.776457 0.836516
vn 0.241481 -0.086273 0.836516
v 3.12099e-15 -0.776457 0.965926
vn 7.80248e-16 -0.086273 0.965926
v -0.965926 -0.776457 0.836516
vn -0.241481 -0.086273 0.836516
v -1.67303 -0.776457 0.482963
vn -0.418258 -0.086273 0.482963
v -1.93185 -0.776457 3.12099e-15
vn -0.482963 -0.086273 3.12099e-15
v -1.67303 -0.776457 -0.482963
vn -0.418258 -0.086273 -0.482963
v -0.965926 -0.776457 -0.836516
vn -0.241481 -0.086273 -0.836516
v -8.93402e-15 -0.776457 -0.965926
vn -2.23351e-15 -0.086273 -0.965926
v 0.965926 -0.776457 -0.836516
vn 0.241481 -0.086273 -0.836516
v 1.67303 -0.776457 -0.482963
vn 0.418258 -0.086273 -0.482963
v 1.73205 -1.5 0
vn 0.433013 -0.166667 0
v 1.5 -1.5 0.433013
vn 0.375 -0.166667 0.433013
v 0.866025 -1.5 0.75
vn 0.216506 -0.166667 0.75
v 2.79821e-15 -1.5 0.866025
vn 6.99551e-16 -0.166667 0.866025
v -0.866025 -1.5 0.75
vn -0.216506 -0.166667 0.75
v -1.5 -1.5 0.433013
vn -0.375 -0.166667 0.433013
v -1.73205 -1.5 2.79821e-15
vn -0.433013 -0.166667 2.79821e-15
v -1.5 -1.5 -0.433013
vn -0.375 -0.166667 -0.433013
v -0.866025 -1.5 -0.75
vn -0.216506 -0.166667 -0.75
v -8.01002e-15 -1.5 -0.866025
vn -2.00251e-15 -0.166667 -0.866025
v 0.866025 -1.5 -0.75
vn 0.216506 -0.166667 -0.75
v 1.5 -1.5 -0.433013
vn 0.375 -0.166667 -0.433013
v 1.41421 -2.12132 0
vn 0.353553 -0.235702 0
v 1.22474 -2.12132 0.353553
vn 0.306186 -0.235702 0.353553
v 0.707107 -2.12132 0.612372
vn 0.176777 -0.235702 0.612372
v 2.28473e-15 -2.12132 0.707107
vn 5.71181e-16 -0.235702 0.707107
v -0.707107 -2.12132 0.612372
vn -0.176777 -0.235702 0.612372
v -1.22474 -2.12132 0.353553
vn -0.306186 -0.235702 0.353553
v -1.41421 -2.12132 2.28473e-15
vn -0.353553 -0.235702 2.28473e-15
v -1.22474 -2.12132 -0.353553
vn -0.306186 -0.235702 -0.353553
v -0.707107 -2.12132 -0.612372
vn -0.176777 -0.235702 -0.612372
v -6.54016e-15 -2.12132 -0.707107
vn -1.63504e-15 -0.235702 -0.707107
v 0.707107 -2.12132 -0.612372
vn 0.176777 -0.235702 -0.612372
v 1.22474 -2.12132 -0.353553
vn 0.306186 -0.235702 -0.353553
v 1 -2.59808 0
vn 0.25 -0.288675 0
v 0.866025 -2.59808 0.25
vn 0.216506 -0.288675 0.25
v 0.5 -2.59808 0.433013
vn 0.125 -0.288675 0.433013
v 1.61554e-15 -2.59808 0.5
vn 4.03886e-16 -0.288675 0.5
v -0.5 -2.59808 0.433013
vn -0.125 -0.288675 0.433013
v -0.866025 -2.59808 0.25
vn -0.216506 -0.288675 0.25
v -1 -2.59808 1.61554e-15
vn -0.25 -0.288675 1.61554e-15
v -0.866025 -2.59808 -0.25
vn -0.216506 -0.288675 -0.25
v -0.5 -2.59808 -0.433013
vn -0.125 -0.288675 -0.433013
v -4.62459e-15 -2.59808 -0.5
vn -1.15615e-15 -0.288675 -0.5
v 0.5 -2.59808 -0.433013
vn 0.125 -0.288675 -0.433013
v 0.866025 -2.59808 -0.25
vn 0.216506 -0.288675 -0.25
v 0.517638 -2.89778 0
vn 0.12941 -0.321975 0
v 0.448288 -2.89778 0.12941
vn 0.112072 -0.321975 0.12941
v 0.258819 -2.89778 0.224144
vn 0.0647048 -0.321975 0.224144
v 8.36267e-16 -2.89778 0.258819
vn 2.09067e-16 -0.321975 0.258819
v -0.258819 -2.89778 0.224144
vn -0.0647048 -0.321975 0.224144
v -0.448288 -2.89778 0.12941
vn -0.112072 -0.321975 0.12941
v -0.517638 -2.89778 8.36267e-16
vn -0.12941 -0.321975 8.36267e-16
v -0.448288 -2.89778 -0.12941
vn -0.112072 -0.321975 -0.12941
v -0.258819 -2.89778 -0.224144
vn -0.0647048 -0.321975 -0.224144
v -2.39386e-15 -2.89778 -0.258819
vn -5.98466e-16 -0.321975 -0.258819
v 0.258819 -2.89778 -0.224144
vn 0.0647048 -0.321975 -0.224144
v 0.448288 -2.89778 -0.12941
vn 0.112072 -0.321975 -0.12941
f 1//1 4//4 3//3 
f 1//1 5//5 4//4 
f 1//1 6//6 5//5 
f 1//1 7//7 6//6 
f 1//1 8//8 7//7 
f 1//1 9//9 8//8 
f 1//1 10//10 9//9 
f 1//1 11//11 10//10 
f 1//1 12//12 11//11 
f 1//1 13//13 12//12 
f 1//1 14//14 13//13 
f 1//1 3//3 14//14 
f 2//2 123//123 124//124
f 2//2 124//124 125//125
f 2//2 125//125 126//126
f 2//2 126//126 127//127
f 2//2 127//127 128//128
f 2//2 128//128 129//129
f 2//2 129//129 130//130
f 2//2 130//130 131//131
f 2//2 131//131 132//132
f 2//2 132//132 133//133
f 2//2 133//133 134//134
f 2//2 134//134 123//123
f 3//3 4//4 15//15
f 15//15 4//4 16//16
f 4//4 5//5 16//16
f 16//16 5//5 17//17
f 5//5 6//6 17//17
f 17//17 6//6 18//18
f 6//6 7//7 18//18
f 18//18 7//7 19//19
f 7//7 8//8 19//19
f 19//19 8//8 20//20
f 8//8 9//9 20//20
f 20//20 9//9 21//21
f 9//9 10//10 21//21
f 21//21 10//10 22//22
f 10//10 11//11 22//22
f 22//22 11//11 23//23
f 11//11 12//12 23//23
f 23//23 12//12 24//24
f 12//12 13//13 24//24
f 24//24 13//13 25//25
f 13//13 14//14 25//25
f 25//25 14//14 26//26
f 14//14 3//3 26//26
f 26//26 3//3 15//15
f 15//15 16//16 27//27
f 27//27 16//16 28//28
f 16//16 17//17 28//28
f 28//28 17//17 29//29
f 17//17 18//18 29//29
f 29//29 18//18 30//30
f 18//18 19//19 30//30
f 30//30 19//19 31//31
f 19//19 20//20 31//31
f 31//31 20//20 32//32
f 20//20 21//21 32//32
f 32//32 21//21 33//33
f 21//21 22//22 33//33
f 33//33 22//22 34//34
f 22//22 23//23 34//34
f 34//34 23//23 35//35
f 23//23 24//24 35//35
f 35//35 24//24 36//36
f 24//24 25//25 36//36
f 36//36 25//25 37//37
f 25//25 26//26 37//37
f 37//37 26//26 38//38
f 26//26 15//15 38//38
f 38//38 15//15 27//27
f 27//27 28//28 39//39
f 39//39 28//28 40//40
f 28//28 29//29 40//40
f 40//40 29//29 41//41
f 29//29 30//30 41//41
f 41//41 30//30 42//42
f 30//30 31//31 42//42
f 42//42 31//31 43//43
f 31//31 32//32 43//43
f 43//43 32//32 44//44
f 32//32 33//33 44//44
f 44//44 33//33 45//45
f 33//33 34//34 45//45
f 45//45 34//34 46//46
f 34//34 35//35 46//46
f 46//46 35//35 47//47
f 35//35 36//36 47//47
f 47//47 36//36 48//48
f 36//36 37//37 48//48
f 48//48 37//37 49//49
f 37//37 38//38 49//49
f 49//49 38//38 50//50
f 38//38 27//27 50//50
f 50//50 27//27 39//39
f 39//39 40//40 51//51
f 51//51 40//40 52//52
f 40//40 41//41 52//52
f 52//52 41//41 53//53
f 41//41 42//42 53//53
f 53//53 42//42 54//54
f 42//42 43//43 54//54
f 54//54 43//43 55//55
f 43//43 44//44 55//55
f 55//55 44//44 56//56
f 44//44 45//45 56//56
f 56//56 45//45 57//57
f 45//45 46//46 57//57
f 57//57 46//46 58//58
f 46//46 47//47 58//58
f 58//58 47//47 59//59
f 47//47 48//48 59//59
f 59//59 48//48 60//60
f 48//48 49//49 60//60
f 60//60 49//49 61//61
f 49//49 50//50 61//61
f 61//61 50//50 62//62
f 50//50 39//39 62//62
f 62//62 39//39 51//51
f 51//51 52//52 63//63
f 63//63 52//52 64//64
f 52//52 53//53 64//64
f 64//64 53//53 65//65
f 53//53 54//54 65//65
f 65//65 54//54 66//66
f 54//54 55//55 66//66
f 66//66 55//55 67//67
f 55//55 56//56 67//67
f 67//67 56//56 68//68
f 56//56 57//57 68//68
f 68//68 57//57 69//69
f 57//57 58//58 69//69
f 69//69 58//58 70//70
f 58//58 59//59 70//70
f 70//70 59//59 71//71
f 59//59 60//60 71//71
f 71//71 60//60 72//72
f 60//60 61//61 72//72
f 72//72 61//61 73//73
f 61//61 62//62 73//73
f 73//73 62//62 74//74
f 62//62 51//51 74//74
f 74//74 51//51 63//63
f 63//63 64//64 75//75
f 75//75 64//64 76//76
f 64//64 65//65 76//76
f 76//76 65//65 77//77
f 65//65 66//66 77//77
f 77//77 66//66 78//78
f 66//66 67//67 78//78
f 78//78 67//67 79//79
f 67//67 68//68 79//79
f 79//79 68//68 80//80
f 68//68 69//69 80//80
f 80//80 69//69 81//81
f 69//69 70//70 81//81
f 81//81 70//70 82//82
f 70//70 71//71 82//82
f 82//82 71//71 83//83
f 71//71 72//72 83//83
f 83//83 72//72 84//84
f 72//72 73//73 84//84
f 84//84 73//73 85//85
f 73//73 74//74 85//85
f 85//85 74//74 86//86
f 74//74 63//63 86//86
f 86//86 63//63 75//75
f 75//75 76//76 87//87
f 87//87 76//76 88//88
f 76//76 77//77 88//88
f 88//88 77//77 89//89
f 77//77 78//78 89//89
f 89//89 78//78 90//90
f 78//78 79//79 90//90
f 90//90 79//79 91//91
f 79//79 80//80 91//91
f 91//91 80//80 92//92
f 80//80 81//81 92//92
f 92//92 81//81 93//93
f 81//81 82//82 93//93
f 93//93 82//82 94//94
f 82//82 83//83 94//94
f 94//94 83//83 95//95
f 83//83 84//84 95//95
f 95//95 84//84 96//96
f 84//84 85//85 96//96
f 96//96 85//85 97//97
f 85//85 86//86 97//97
f 97//97 86//86 98//98
f 86//86 75//75 98//98
f 98//98 75//75 87//87
f 87//87 88//88 99//99
f 99//99 88//88 100//100
f 88//88 89//89 100//100
f 100//100 89//89 101//101
f 89//89 90//90 101//101
f 101//101 90//90 102//102
f 90//90 91//91 102//102
f 102//102 91//91 103//103
f 91//91 92//92 103//103
f 103//103 92//92 104//104
f 92//92 93//93 104//104
f 104//104 93//93 105//105
f 93//93 94//94 105//105
f 105//105 94//94 106//106
f 94//94 95//95 106//106
f 106//106 95//95 107//107
f 95//95 96//96 107//107
f 107//107 96//96 108//108
f 96//96 97//97 108//108
f 108//108 97//97 109//109
f 97//97 98//98 109//109
f 109//109 98//98 110//110
f 98//98 87//87 110//110
f 110//110 87//87 99//99
f 99//99 100//100 111//111
f 111//111 100//100 112//112
f 100//100 101//101 112//112
f 112//112 101//101 113//113
f 101//101 102//102 113//113
f 113//113 102//102 114//114
f 102//102 103//103 114//114
f 114//114 103//103 115//115
f 103//103 104//104 115//115
f 115//115 104//104 116//116
f 104//104 105//105 116//116
f 116//116 105//105 117//117
f 105//105 106//106 117//117
f 117//117 106//106 118//118
f 106//106 107//107 118//118
f 118//118 107//107 119//119
f 107//107 108//108 119//119
f 119//119 108//108 120//120
f 108//108 109//109 120//120
f 120//120 109//109 121//121
f 109//109 110//110 121//121
f 121//121 110//110 122//122
f 110//110 99//99 122//122
f 122//122 99//99 111//111
f 111//111 112//112 123//123
f 123//123 112//112 124//124
f 112//112 113//113 124//124
f 124//124 113//113 125//125
f 113//113 114//114 125//125
f 125//125 114//114 126//126
f 114//114 115//115 126//126
f 126//126 115//115 127//127
f 115//115 116//116 127//127
f 127//127 116//116 128//128
f 116//116 117//117 128//128
f 128//128 117//117 129//129
f 117//117 118//118 129//129
f 129//129 118//118 130//130
f 118//118 119//119 130//130
f 130//130 119//119 131//131
f 119//119 120//120 131//131
f 131//131 120//120 132//132
f 120//120 121//121 132//132
f 132//132 121//121 133//133
f 121//121 122//122 133//133
f 133//133 122//122 134//134
f 122//122 111//111 134//134
f 134//134 111//111 123//123
