v 0.5 0.8 0
v 0.75 0 0
v 1 -0.8 0
v 0.433013 0.8 0.25
v 0.649519 0 0.375
v 0.866025 -0.8 0.5
v 0.25 0.8 0.433013
v 0.375 0 0.649519
v 0.5 -0.8 0.866025
v 7.49707e-14 0.8 0.5
v 1.12456e-13 0 0.75
v 1.49941e-13 -0.8 1
v -0.25 0.8 0.433013
v -0.375 0 0.649519
v -0.5 -0.8 0.866025
v -0.433013 0.8 0.25
v -0.649519 0 0.375
v -0.866025 -0.8 0.5
v -0.5 0.8 1.49941e-13
v -0.75 0 2.24912e-13
v -1 -0.8 2.99883e-13
v -0.433013 0.8 -0.25
v -0.649519 0 -0.375
v -0.866025 -0.8 -0.5
v -0.25 0.8 -0.433013
v -0.375 0 -0.649519
v -0.5 -0.8 -0.866025
v -2.24801e-13 0.8 -0.5
v -3.37201e-13 0 -0.75
v -4.49602e-13 -0.8 -1
v 0.25 0.8 -0.433013
v 0.375 0 -0.649519
v 0.5 -0.8 -0.866025
v 0.433013 0.8 -0.25
v 0.649519 0 -0.375
v 0.866025 -0.8 -0.5
v 0 0.8 0
v 0 -0.8 0
vn 1 0.3125 0
vn 0.866025 0.3125 0.5
vn 0.5 0.3125 0.866025
vn 1.49941e-13 0.3125 1
vn -0.5 0.3125 0.866025
vn -0.866025 0.3125 0.5
vn -1 0.3125 2.99883e-13
vn -0.866025 0.3125 -0.5
vn -0.5 0.3125 -0.866025
vn -4.49602e-13 0.3125 -1
vn 0.5 0.3125 -0.866025
vn 0.866025 0.3125 -0.5
vn 0 1 0
vn 0 -1 0
f 1//1 4//2 5//2
f 1//1 5//2 2//1
f 2//1 5//2 6//2
f 2//1 6//2 3//1
f 37//13 4//13 1//13
f 38//14 3//14 6//14
f 4//2 7//3 8//3
f 4//2 8//3 5//2
f 5//2 8//3 9//3
f 5//2 9//3 6//2
f 37//13 7//13 4//13
f 38//14 6//14 9//14
f 7//3 10//4 11//4
f 7//3 11//4 8//3
f 8//3 11//4 12//4
f 8//3 12//4 9//3
f 37//13 10//13 7//13
f 38//14 9//14 12//14
f 10//4 13//5 14//5
f 10//4 14//5 11//4
f 11//4 14//5 15//5
f 11//4 15//5 12//4
f 37//13 13//13 10//13
f 38//14 12//14 15//14
f 13//5 16//6 17//6
f 13//5 17//6 14//5
f 14//5 17//6 18//6
f 14//5 18//6 15//5
f 37//13 16//13 13//13
f 38//14 15//14 18//14
f 16//6 19//7 20//7
f 16//6 20//7 17//6
f 17//6 20//7 21//7
f 17//6 21//7 18//6
f 37//13 19//13 16//13
f 38//14 18//14 21//14
f 19//7 22//8 23//8
f 19//7 23//8 20//7
f 20//7 23//8 24//8
f 20//7 24//8 21//7
f 37//13 22//13 19//13
f 38//14 21//14 24//14
f 22//8 25//9 26//9
f 22//8 26//9 23//8
f 23//8 26//9 27//9
f 23//8 27//9 24//8
f 37//13 25//13 22//13
f 38//14 24//14 27//14
f 25//9 28//10 29//10
f 25//9 29//10 26//9
f 26//9 29//10 30//10
f 26//9 30//10 27//9
f 37//13 28//13 25//13
f 38//14 27//14 30//14
f 28//10 31//11 32//11
f 28//10 32//11 29//10
f 29//10 32//11 33//11
f 29//10 33//11 30//10
f 37//13 31//13 28//13
f 38//14 30//14 33//14
f 31//11 34//12 35//12
f 31//11 35//12 32//11
f 32//11 35//12 36//12
f 32//11 36//12 33//11
f 37//13 34//13 31//13
f 38//14 33//14 36//14
f 34//12 1//1 2//1
f 34//12 2//1 35//12
f 35//12 2//1 3//1
f 35//12 3//1 36//12
f 37//13 1//13 34//13
f 38//14 36//14 3//14
