v 0 1 1
v 0 -1 1
v 0.34202 1 0.939693
v 0.34202 -1 0.939693
v 0.642788 1 0.766044
v 0.642788 -1 0.766044
v 0.866025 1 0.5
v 0.866025 -1 0.5
v 0.984808 1 0.173648
v 0.984808 -1 0.173648
v 0.984808 1 -0.173648
v 0.984808 -1 -0.173648
v 0.866025 1 -0.5
v 0.866025 -1 -0.5
v 0.642788 1 -0.766044
v 0.642788 -1 -0.766044
v 0.34202 1 -0.939693
v 0.34202 -1 -0.939693
v 2.99883e-13 1 -1
v 2.99883e-13 -1 -1
v -0.34202 1 -0.939693
v -0.34202 -1 -0.939693
v -0.642788 1 -0.766044
v -0.642788 -1 -0.766044
v -0.866025 1 -0.5
v -0.866025 -1 -0.5
v -0.984808 1 -0.173648
v -0.984808 -1 -0.173648
v -0.984808 1 0.173648
v -0.984808 -1 0.173648
v -0.866025 1 0.5
v -0.866025 -1 0.5
v -0.642788 1 0.766044
v -0.642788 -1 0.766044
v -0.34202 1 0.939693
v -0.34202 -1 0.939693
v 0 1 0
v 0 -1 0
vn 0 0 1
vn 0.34202 0 0.939693
vn 0.642788 0 0.766044
vn 0.866025 0 0.5
vn 0.984808 0 0.173648
vn 0.984808 0 -0.173648
vn 0.866025 0 -0.5
vn 0.642788 0 -0.766044
vn 0.34202 0 -0.939693
vn 2.99883e-13 0 -1
vn -0.34202 0 -0.939693
vn -0.642788 0 -0.766044
vn -0.866025 0 -0.5
vn -0.984808 0 -0.173648
vn -0.984808 0 0.173648
vn -0.866025 0 0.5
vn -0.642788 0 0.766044
vn -0.34202 0 0.939693
vn 0 1 0
vn 0 -1 0
f 1//1 2//1 3//2
f 3//2 2//1 4//2
f 1//19 3//19 37//19
f 4//20 2//20 38//20
f 3//2 4//2 5//3
f 5//3 4//2 6//3
f 3//19 5//19 37//19
f 6//20 4//20 38//20
f 5//3 6//3 7//4
f 7//4 6//3 8//4
f 5//19 7//19 37//19
f 8//20 6//20 38//20
f 7//4 8//4 9//5
f 9//5 8//4 10//5
f 7//19 9//19 37//19
f 10//20 8//20 38//20
f 9//5 10//5 11//6
f 11//6 10//5 12//6
f 9//19 11//19 37//19
f 12//20 10//20 38//20
f 11//6 12//6 13//7
f 13//7 12//6 14//7
f 11//19 13//19 37//19
f 14//20 12//20 38//20
f 13//7 14//7 15//8
f 15//8 14//7 16//8
f 13//19 15//19 37//19
f 16//20 14//20 38//20
f 15//8 16//8 17//9
f 17//9 16//8 18//9
f 15//19 17//19 37//19
f 18//20 16//20 38//20
f 17//9 18//9 19//10
f 19//10 18//9 20//10
f 17//19 19//19 37//19
f 20//20 18//20 38//20
f 19//10 20//10 21//11
f 21//11 20//10 22//11
f 19//19 21//19 37//19
f 22//20 20//20 38//20
f 21//11 22//11 23//12
f 23//12 22//11 24//12
f 21//19 23//19 37//19
f 24//20 22//20 38//20
f 23//12 24//12 25//13
f 25//13 24//12 26//13
f 23//19 25//19 37//19
f 26//20 24//20 38//20
f 25//13 26//13 27//14
f 27//14 26//13 28//14
f 25//19 27//19 37//19
f 28//20 26//20 38//20
f 27//14 28//14 29//15
f 29//15 28//14 30//15
f 27//19 29//19 37//19
f 30//20 28//20 38//20
f 29//15 30//15 31//16
f 31//16 30//15 32//16
f 29//19 31//19 37//19
f 32//20 30//20 38//20
f 31//16 32//16 33//17
f 33//17 32//16 34//17
f 31//19 33//19 37//19
f 34//20 32//20 38//20
f 33//17 34//17 35//18
f 35//18 34//17 36//18
f 33//19 35//19 37//19
f 36//20 34//20 38//20
f 35//18 36//18 1//1
f 1//1 36//18 2//1
f 35//19 1//19 37//19
f 2//20 36//20 38//20
