v 0 1 1
v 0 -1 1
v 0.540641 1 0.841254
v 0.540641 -1 0.841254
v 0.909632 1 0.415415
v 0.909632 -1 0.415415
v 0.989821 1 -0.142315
v 0.989821 -1 -0.142315
v 0.75575 1 -0.654861
v 0.75575 -1 -0.654861
v 0.281733 1 -0.959493
v 0.281733 -1 -0.959493
v -0.281733 1 -0.959493
v -0.281733 -1 -0.959493
v -0.75575 1 -0.654861
v -0.75575 -1 -0.654861
v -0.989821 1 -0.142315
v -0.989821 -1 -0.142315
v -0.909632 1 0.415415
v -0.909632 -1 0.415415
v -0.540641 1 0.841254
v -0.540641 -1 0.841254
v 0 1 0
v 0 -1 0
vn 0 0 1
vn 0.540641 0 0.841254
vn 0.909632 0 0.415415
vn 0.989821 0 -0.142315
vn 0.75575 0 -0.654861
vn 0.281733 0 -0.959493
vn -0.281733 0 -0.959493
vn -0.75575 0 -0.654861
vn -0.989821 0 -0.142315
vn -0.909632 0 0.415415
vn -0.540641 0 0.841254
vn 0 1 0
vn 0 -1 0
f 1//1 2//1 3//2
f 3//2 2//1 4//2
f 1//12 3//12 23//12
f 4//13 2//13 24//13
f 3//2 4//2 5//3
f 5//3 4//2 6//3
f 3//12 5//12 23//12
f 6//13 4//13 24//13
f 5//3 6//3 7//4
f 7//4 6//3 8//4
f 5//12 7//12 23//12
f 8//13 6//13 24//13
f 7//4 8//4 9//5
f 9//5 8//4 10//5
f 7//12 9//12 23//12
f 10//13 8//13 24//13
f 9//5 10//5 11//6
f 11//6 10//5 12//6
f 9//12 11//12 23//12
f 12//13 10//13 24//13
f 11//6 12//6 13//7
f 13//7 12//6 14//7
f 11//12 13//12 23//12
f 14//13 12//13 24//13
f 13//7 14//7 15//8
f 15//8 14//7 16//8
f 13//12 15//12 23//12
f 16//13 14//13 24//13
f 15//8 16//8 17//9
f 17//9 16//8 18//9
f 15//12 17//12 23//12
f 18//13 16//13 24//13
f 17//9 18//9 19//10
f 19//10 18//9 20//10
f 17//12 19//12 23//12
f 20//13 18//13 24//13
f 19//10 20//10 21//11
f 21//11 20//10 22//11
f 19//12 21//12 23//12
f 22//13 20//13 24//13
f 21//11 22//11 1//1
f 1//1 22//11 2//1
f 21//12 1//12 23//12
f 2//13 22//13 24//13
