v 0 1 1
v 0 -1 1
v 0.781831 1 0.62349
v 0.781831 -1 0.62349
v 0.974928 1 -0.222521
v 0.974928 -1 -0.222521
v 0.433884 1 -0.900969
v 0.433884 -1 -0.900969
v -0.433884 1 -0.900969
v -0.433884 -1 -0.900969
v -0.974928 1 -0.222521
v -0.974928 -1 -0.222521
v -0.781831 1 0.62349
v -0.781831 -1 0.62349
v 0 1 0
v 0 -1 0
vn 0 0 1
vn 0.781831 0 0.62349
vn 0.974928 0 -0.222521
vn 0.433884 0 -0.900969
vn -0.433884 0 -0.900969
vn -0.974928 0 -0.222521
vn -0.781831 0 0.62349
vn 0 1 0
vn 0 -1 0
f 1//1 2//1 3//2
f 3//2 2//1 4//2
f 1//8 3//8 15//8
f 4//9 2//9 16//9
f 3//2 4//2 5//3
f 5//3 4//2 6//3
f 3//8 5//8 15//8
f 6//9 4//9 16//9
f 5//3 6//3 7//4
f 7//4 6//3 8//4
f 5//8 7//8 15//8
f 8//9 6//9 16//9
f 7//4 8//4 9//5
f 9//5 8//4 10//5
f 7//8 9//8 15//8
f 10//9 8//9 16//9
f 9//5 10//5 11//6
f 11//6 10//5 12//6
f 9//8 11//8 15//8
f 12//9 10//9 16//9
f 11//6 12//6 13//7
f 13//7 12//6 14//7
f 11//8 13//8 15//8
f 14//9 12//9 16//9
f 13//7 14//7 1//1
f 1//1 14//7 2//1
f 13//8 1//8 15//8
f 2//9 14//9 16//9
