v 0 1 1
v 0 -1 1
v 0.866025 1 0.5
v 0.866025 -1 0.5
v 0.866025 1 -0.5
v 0.866025 -1 -0.5
v 2.99883e-13 1 -1
v 2.99883e-13 -1 -1
v -0.866025 1 -0.5
v -0.866025 -1 -0.5
v -0.866025 1 0.5
v -0.866025 -1 0.5
v 0 1 0
v 0 -1 0
vn 0 0 1
vn 0.866025 0 0.5
vn 0.866025 0 -0.5
vn 2.99883e-13 0 -1
vn -0.866025 0 -0.5
vn -0.866025 0 0.5
vn 0 1 0
vn 0 -1 0
f 1//1 2//1 3//2
f 3//2 2//1 4//2
f 1//7 3//7 13//7
f 4//8 2//8 14//8
f 3//2 4//2 5//3
f 5//3 4//2 6//3
f 3//7 5//7 13//7
f 6//8 4//8 14//8
f 5//3 6//3 7//4
f 7//4 6//3 8//4
f 5//7 7//7 13//7
f 8//8 6//8 14//8
f 7//4 8//4 9//5
f 9//5 8//4 10//5
f 7//7 9//7 13//7
f 10//8 8//8 14//8
f 9//5 10//5 11//6
f 11//6 10//5 12//6
f 9//7 11//7 13//7
f 12//8 10//8 14//8
f 11//6 12//6 1//1
f 1//1 12//6 2//1
f 11//7 1//7 13//7
f 2//8 12//8 14//8
