v 0 1 1
v 0 -1 1
v 0.433884 1 0.900969
v 0.433884 -1 0.900969
v 0.781831 1 0.62349
v 0.781831 -1 0.62349
v 0.974928 1 0.222521
v 0.974928 -1 0.222521
v 0.974928 1 -0.222521
v 0.974928 -1 -0.222521
v 0.781831 1 -0.62349
v 0.781831 -1 -0.62349
v 0.433884 1 -0.900969
v 0.433884 -1 -0.900969
v 2.99883e-13 1 -1
v 2.99883e-13 -1 -1
v -0.433884 1 -0.900969
v -0.433884 -1 -0.900969
v -0.781831 1 -0.62349
v -0.781831 -1 -0.62349
v -0.974928 1 -0.222521
v -0.974928 -1 -0.222521
v -0.974928 1 0.222521
v -0.974928 -1 0.222521
v -0.781831 1 0.62349
v -0.781831 -1 0.62349
v -0.433884 1 0.900969
v -0.433884 -1 0.900969
v 0 1 0
v 0 -1 0
vn 0 0 1
vn 0.433884 0 0.900969
vn 0.781831 0 0.62349
vn 0.974928 0 0.222521
vn 0.974928 0 -0.222521
vn 0.781831 0 -0.62349
vn 0.433884 0 -0.900969
vn 2.99883e-13 0 -1
vn -0.433884 0 -0.900969
vn -0.781831 0 -0.62349
vn -0.974928 0 -0.222521
vn -0.974928 0 0.222521
vn -0.781831 0 0.62349
vn -0.433884 0 0.900969
vn 0 1 0
vn 0 -1 0
f 1//1 2//1 3//2
f 3//2 2//1 4//2
f 1//15 3//15 29//15
f 4//16 2//16 30//16
f 3//2 4//2 5//3
f 5//3 4//2 6//3
f 3//15 5//15 29//15
f 6//16 4//16 30//16
f 5//3 6//3 7//4
f 7//4 6//3 8//4
f 5//15 7//15 29//15
f 8//16 6//16 30//16
f 7//4 8//4 9//5
f 9//5 8//4 10//5
f 7//15 9//15 29//15
f 10//16 8//16 30//16
f 9//5 10//5 11//6
f 11//6 10//5 12//6
f 9//15 11//15 29//15
f 12//16 10//16 30//16
f 11//6 12//6 13//7
f 13//7 12//6 14//7
f 11//15 13//15 29//15
f 14//16 12//16 30//16
f 13//7 14//7 15//8
f 15//8 14//7 16//8
f 13//15 15//15 29//15
f 16//16 14//16 30//16
f 15//8 16//8 17//9
f 17//9 16//8 18//9
f 15//15 17//15 29//15
f 18//16 16//16 30//16
f 17//9 18//9 19//10
f 19//10 18//9 20//10
f 17//15 19//15 29//15
f 20//16 18//16 30//16
f 19//10 20//10 21//11
f 21//11 20//10 22//11
f 19//15 21//15 29//15
f 22//16 20//16 30//16
f 21//11 22//11 23//12
f 23//12 22//11 24//12
f 21//15 23//15 29//15
f 24//16 22//16 30//16
f 23//12 24//12 25//13
f 25//13 24//12 26//13
f 23//15 25//15 29//15
f 26//16 24//16 30//16
f 25//13 26//13 27//14
f 27//14 26//13 28//14
f 25//15 27//15 29//15
f 28//16 26//16 30//16
f 27//14 28//14 1//1
f 1//1 28//14 2//1
f 27//15 1//15 29//15
f 2//16 28//16 30//16
