v 0 1 1
v 0 -1 1
v 0.361242 1 0.932472
v 0.361242 -1 0.932472
v 0.673696 1 0.739009
v 0.673696 -1 0.739009
v 0.895163 1 0.445738
v 0.895163 -1 0.445738
v 0.995734 1 0.0922684
v 0.995734 -1 0.0922684
v 0.961826 1 -0.273663
v 0.961826 -1 -0.273663
v 0.798017 1 -0.602635
v 0.798017 -1 -0.602635
v 0.526432 1 -0.850217
v 0.526432 -1 -0.850217
v 0.18375 1 -0.982973
v 0.18375 -1 -0.982973
v -0.18375 1 -0.982973
v -0.18375 -1 -0.982973
v -0.526432 1 -0.850217
v -0.526432 -1 -0.850217
v -0.798017 1 -0.602635
v -0.798017 -1 -0.602635
v -0.961826 1 -0.273663
v -0.961826 -1 -0.273663
v -0.995734 1 0.0922684
v -0.995734 -1 0.0922684
v -0.895163 1 0.445738
v -0.895163 -1 0.445738
v -0.673696 1 0.739009
v -0.673696 -1 0.739009
v -0.361242 1 0.932472
v -0.361242 -1 0.932472
v 0 1 0
v 0 -1 0
vn 0 0 1
vn 0.361242 0 0.932472
vn 0.673696 0 0.739009
vn 0.895163 0 0.445738
vn 0.995734 0 0.0922684
vn 0.961826 0 -0.273663
vn 0.798017 0 -0.602635
vn 0.526432 0 -0.850217
vn 0.18375 0 -0.982973
vn -0.18375 0 -0.982973
vn -0.526432 0 -0.850217
vn -0.798017 0 -0.602635
vn -0.961826 0 -0.273663
vn -0.995734 0 0.0922684
vn -0.895163 0 0.445738
vn -0.673696 0 0.739009
vn -0.361242 0 0.932472
vn 0 1 0
vn 0 -1 0
f 1//1 2//1 3//2
f 3//2 2//1 4//2
f 1//18 3//18 35//18
f 4//19 2//19 36//19
f 3//2 4//2 5//3
f 5//3 4//2 6//3
f 3//18 5//18 35//18
f 6//19 4//19 36//19
f 5//3 6//3 7//4
f 7//4 6//3 8//4
f 5//18 7//18 35//18
f 8//19 6//19 36//19
f 7//4 8//4 9//5
f 9//5 8//4 10//5
f 7//18 9//18 35//18
f 10//19 8//19 36//19
f 9//5 10//5 11//6
f 11//6 10//5 12//6
f 9//18 11//18 35//18
f 12//19 10//19 36//19
f 11//6 12//6 13//7
f 13//7 12//6 14//7
f 11//18 13//18 35//18
f 14//19 12//19 36//19
f 13//7 14//7 15//8
f 15//8 14//7 16//8
f 13//18 15//18 35//18
f 16//19 14//19 36//19
f 15//8 16//8 17//9
f 17//9 16//8 18//9
f 15//18 17//18 35//18
f 18//19 16//19 36//19
f 17//9 18//9 19//10
f 19//10 18//9 20//10
f 17//18 19//18 35//18
f 20//19 18//19 36//19
f 19//10 20//10 21//11
f 21//11 20//10 22//11
f 19//18 21//18 35//18
f 22//19 20//19 36//19
f 21//11 22//11 23//12
f 23//12 22//11 24//12
f 21//18 23//18 35//18
f 24//19 22//19 36//19
f 23//12 24//12 25//13
f 25//13 24//12 26//13
f 23//18 25//18 35//18
f 26//19 24//19 36//19
f 25//13 26//13 27//14
f 27//14 26//13 28//14
f 25//18 27//18 35//18
f 28//19 26//19 36//19
f 27//14 28//14 29//15
f 29//15 28//14 30//15
f 27//18 29//18 35//18
f 30//19 28//19 36//19
f 29//15 30//15 31//16
f 31//16 30//15 32//16
f 29//18 31//18 35//18
f 32//19 30//19 36//19
f 31//16 32//16 33//17
f 33//17 32//16 34//17
f 31//18 33//18 35//18
f 34//19 32//19 36//19
f 33//17 34//17 1//1
f 1//1 34//17 2//1
f 33//18 1//18 35//18
f 2//19 34//19 36//19
