v 0 1 1
v 0 -1 1
v 0.951057 1 0.309017
v 0.951057 -1 0.309017
v 0.587785 1 -0.809017
v 0.587785 -1 -0.809017
v -0.587785 1 -0.809017
v -0.587785 -1 -0.809017
v -0.951057 1 0.309017
v -0.951057 -1 0.309017
v 0 1 0
v 0 -1 0
vn 0 0 1
vn 0.951057 0 0.309017
vn 0.587785 0 -0.809017
vn -0.587785 0 -0.809017
vn -0.951057 0 0.309017
vn 0 1 0
vn 0 -1 0
f 1//1 2//1 3//2
f 3//2 2//1 4//2
f 1//6 3//6 11//6
f 4//7 2//7 12//7
f 3//2 4//2 5//3
f 5//3 4//2 6//3
f 3//6 5//6 11//6
f 6//7 4//7 12//7
f 5//3 6//3 7//4
f 7//4 6//3 8//4
f 5//6 7//6 11//6
f 8//7 6//7 12//7
f 7//4 8//4 9//5
f 9//5 8//4 10//5
f 7//6 9//6 11//6
f 10//7 8//7 12//7
f 9//5 10//5 1//1
f 1//1 10//5 2//1
f 9//6 1//6 11//6
f 2//7 10//7 12//7
