v 0 1 1
v 0 -1 1
v 1 1 1.49941e-13
v 1 -1 1.49941e-13
v 2.99883e-13 1 -1
v 2.99883e-13 -1 -1
v -1 1 -4.49602e-13
v -1 -1 -4.49602e-13
v 0 1 0
v 0 -1 0
vn 0 0 1
vn 1 0 1.49941e-13
vn 2.99883e-13 0 -1
vn -1 0 -4.49602e-13
vn 0 1 0
vn 0 -1 0
f 1//1 2//1 3//2
f 3//2 2//1 4//2
f 1//5 3//5 9//5
f 4//6 2//6 10//6
f 3//2 4//2 5//3
f 5//3 4//2 6//3
f 3//5 5//5 9//5
f 6//6 4//6 10//6
f 5//3 6//3 7//4
f 7//4 6//3 8//4
f 5//5 7//5 9//5
f 8//6 6//6 10//6
f 7//4 8//4 1//1
f 1//1 8//4 2//1
f 7//5 1//5 9//5
f 2//6 8//6 10//6
