v 0 1 1
v 0 -1 1
v 0.406737 1 0.913545
v 0.406737 -1 0.913545
v 0.743145 1 0.669131
v 0.743145 -1 0.669131
v 0.951057 1 0.309017
v 0.951057 -1 0.309017
v 0.994522 1 -0.104528
v 0.994522 -1 -0.104528
v 0.866025 1 -0.5
v 0.866025 -1 -0.5
v 0.587785 1 -0.809017
v 0.587785 -1 -0.809017
v 0.207912 1 -0.978148
v 0.207912 -1 -0.978148
v -0.207912 1 -0.978148
v -0.207912 -1 -0.978148
v -0.587785 1 -0.809017
v -0.587785 -1 -0.809017
v -0.866025 1 -0.5
v -0.866025 -1 -0.5
v -0.994522 1 -0.104528
v -0.994522 -1 -0.104528
v -0.951057 1 0.309017
v -0.951057 -1 0.309017
v -0.743145 1 0.669131
v -0.743145 -1 0.669131
v -0.406737 1 0.913545
v -0.406737 -1 0.913545
v 0 1 0
v 0 -1 0
vn 0 0 1
vn 0.406737 0 0.913545
vn 0.743145 0 0.669131
vn 0.951057 0 0.309017
vn 0.994522 0 -0.104528
vn 0.866025 0 -0.5
vn 0.587785 0 -0.809017
vn 0.207912 0 -0.978148
vn -0.207912 0 -0.978148
vn -0.587785 0 -0.809017
vn -0.866025 0 -0.5
vn -0.994522 0 -0.104528
vn -0.951057 0 0.309017
vn -0.743145 0 0.669131
vn -0.406737 0 0.913545
vn 0 1 0
vn 0 -1 0
f 1//1 2//1 3//2
f 3//2 2//1 4//2
f 1//16 3//16 31//16
f 4//17 2//17 32//17
f 3//2 4//2 5//3
f 5//3 4//2 6//3
f 3//16 5//16 31//16
f 6//17 4//17 32//17
f 5//3 6//3 7//4
f 7//4 6//3 8//4
f 5//16 7//16 31//16
f 8//17 6//17 32//17
f 7//4 8//4 9//5
f 9//5 8//4 10//5
f 7//16 9//16 31//16
f 10//17 8//17 32//17
f 9//5 10//5 11//6
f 11//6 10//5 12//6
f 9//16 11//16 31//16
f 12//17 10//17 32//17
f 11//6 12//6 13//7
f 13//7 12//6 14//7
f 11//16 13//16 31//16
f 14//17 12//17 32//17
f 13//7 14//7 15//8
f 15//8 14//7 16//8
f 13//16 15//16 31//16
f 16//17 14//17 32//17
f 15//8 16//8 17//9
f 17//9 16//8 18//9
f 15//16 17//16 31//16
f 18//17 16//17 32//17
f 17//9 18//9 19//10
f 19//10 18//9 20//10
f 17//16 19//16 31//16
f 20//17 18//17 32//17
f 19//10 20//10 21//11
f 21//11 20//10 22//11
f 19//16 21//16 31//16
f 22//17 20//17 32//17
f 21//11 22//11 23//12
f 23//12 22//11 24//12
f 21//16 23//16 31//16
f 24//17 22//17 32//17
f 23//12 24//12 25//13
f 25//13 24//12 26//13
f 23//16 25//16 31//16
f 26//17 24//17 32//17
f 25//13 26//13 27//14
f 27//14 26//13 28//14
f 25//16 27//16 31//16
f 28//17 26//17 32//17
f 27//14 28//14 29//15
f 29//15 28//14 30//15
f 27//16 29//16 31//16
f 30//17 28//17 32//17
f 29//15 30//15 1//1
f 1//1 30//15 2//1
f 29//16 1//16 31//16
f 2//17 30//17 32//17
