v 0 1 1
v 0 -1 1
v 0.324699 1 0.945817
v 0.324699 -1 0.945817
v 0.614213 1 0.789141
v 0.614213 -1 0.789141
v 0.837166 1 0.546948
v 0.837166 -1 0.546948
v 0.9694 1 0.245485
v 0.9694 -1 0.245485
v 0.996584 1 -0.0825793
v 0.996584 -1 -0.0825793
v 0.915773 1 -0.401695
v 0.915773 -1 -0.401695
v 0.735724 1 -0.677282
v 0.735724 -1 -0.677282
v 0.475947 1 -0.879474
v 0.475947 -1 -0.879474
v 0.164595 1 -0.986361
v 0.164595 -1 -0.986361
v -0.164595 1 -0.986361
v -0.164595 -1 -0.986361
v -0.475947 1 -0.879474
v -0.475947 -1 -0.879474
v -0.735724 1 -0.677282
v -0.735724 -1 -0.677282
v -0.915773 1 -0.401695
v -0.915773 -1 -0.401695
v -0.996584 1 -0.0825793
v -0.996584 -1 -0.0825793
v -0.9694 1 0.245485
v -0.9694 -1 0.245485
v -0.837166 1 0.546948
v -0.837166 -1 0.546948
v -0.614213 1 0.789141
v -0.614213 -1 0.789141
v -0.324699 1 0.945817
v -0.324699 -1 0.945817
v 0 1 0
v 0 -1 0
vn 0 0 1
vn 0.324699 0 0.945817
vn 0.614213 0 0.789141
vn 0.837166 0 0.546948
vn 0.9694 0 0.245485
vn 0.996584 0 -0.0825793
vn 0.915773 0 -0.401695
vn 0.735724 0 -0.677282
vn 0.475947 0 -0.879474
vn 0.164595 0 -0.986361
vn -0.164595 0 -0.986361
vn -0.475947 0 -0.879474
vn -0.735724 0 -0.677282
vn -0.915773 0 -0.401695
vn -0.996584 0 -0.0825793
vn -0.9694 0 0.245485
vn -0.837166 0 0.546948
vn -0.614213 0 0.789141
vn -0.324699 0 0.945817
vn 0 1 0
vn 0 -1 0
f 1//1 2//1 3//2
f 3//2 2//1 4//2
f 1//20 3//20 39//20
f 4//21 2//21 40//21
f 3//2 4//2 5//3
f 5//3 4//2 6//3
f 3//20 5//20 39//20
f 6//21 4//21 40//21
f 5//3 6//3 7//4
f 7//4 6//3 8//4
f 5//20 7//20 39//20
f 8//21 6//21 40//21
f 7//4 8//4 9//5
f 9//5 8//4 10//5
f 7//20 9//20 39//20
f 10//21 8//21 40//21
f 9//5 10//5 11//6
f 11//6 10//5 12//6
f 9//20 11//20 39//20
f 12//21 10//21 40//21
f 11//6 12//6 13//7
f 13//7 12//6 14//7
f 11//20 13//20 39//20
f 14//21 12//21 40//21
f 13//7 14//7 15//8
f 15//8 14//7 16//8
f 13//20 15//20 39//20
f 16//21 14//21 40//21
f 15//8 16//8 17//9
f 17//9 16//8 18//9
f 15//20 17//20 39//20
f 18//21 16//21 40//21
f 17//9 18//9 19//10
f 19//10 18//9 20//10
f 17//20 19//20 39//20
f 20//21 18//21 40//21
f 19//10 20//10 21//11
f 21//11 20//10 22//11
f 19//20 21//20 39//20
f 22//21 20//21 40//21
f 21//11 22//11 23//12
f 23//12 22//11 24//12
f 21//20 23//20 39//20
f 24//21 22//21 40//21
f 23//12 24//12 25//13
f 25//13 24//12 26//13
f 23//20 25//20 39//20
f 26//21 24//21 40//21
f 25//13 26//13 27//14
f 27//14 26//13 28//14
f 25//20 27//20 39//20
f 28//21 26//21 40//21
f 27//14 28//14 29//15
f 29//15 28//14 30//15
f 27//20 29//20 39//20
f 30//21 28//21 40//21
f 29//15 30//15 31//16
f 31//16 30//15 32//16
f 29//20 31//20 39//20
f 32//21 30//21 40//21
f 31//16 32//16 33//17
f 33//17 32//16 34//17
f 31//20 33//20 39//20
f 34//21 32//21 40//21
f 33//17 34//17 35//18
f 35//18 34//17 36//18
f 33//20 35//20 39//20
f 36//21 34//21 40//21
f 35//18 36//18 37//19
f 37//19 36//18 38//19
f 35//20 37//20 39//20
f 38//21 36//21 40//21
f 37//19 38//19 1//1
f 1//1 38//19 2//1
f 37//20 1//20 39//20
f 2//21 38//21 40//21
