v 0 1 1
v 0 -1 1
v 0.707107 1 0.707107
v 0.707107 -1 0.707107
v 1 1 1.49941e-13
v 1 -1 1.49941e-13
v 0.707107 1 -0.707107
v 0.707107 -1 -0.707107
v 2.99883e-13 1 -1
v 2.99883e-13 -1 -1
v -0.707107 1 -0.707107
v -0.707107 -1 -0.707107
v -1 1 -4.49602e-13
v -1 -1 -4.49602e-13
v -0.707107 1 0.707107
v -0.707107 -1 0.707107
v 0 1 0
v 0 -1 0
vn 0 0 1
vn 0.707107 0 0.707107
vn 1 0 1.49941e-13
vn 0.707107 0 -0.707107
vn 2.99883e-13 0 -1
vn -0.707107 0 -0.707107
vn -1 0 -4.49602e-13
vn -0.707107 0 0.707107
vn 0 1 0
vn 0 -1 0
f 1//1 2//1 3//2
f 3//2 2//1 4//2
f 1//9 3//9 17//9
f 4//10 2//10 18//10
f 3//2 4//2 5//3
f 5//3 4//2 6//3
f 3//9 5//9 17//9
f 6//10 4//10 18//10
f 5//3 6//3 7//4
f 7//4 6//3 8//4
f 5//9 7//9 17//9
f 8//10 6//10 18//10
f 7//4 8//4 9//5
f 9//5 8//4 10//5
f 7//9 9//9 17//9
f 10//10 8//10 18//10
f 9//5 10//5 11//6
f 11//6 10//5 12//6
f 9//9 11//9 17//9
f 12//10 10//10 18//10
f 11//6 12//6 13//7
f 13//7 12//6 14//7
f 11//9 13//9 17//9
f 14//10 12//10 18//10
f 13//7 14//7 15//8
f 15//8 14//7 16//8
f 13//9 15//9 17//9
f 16//10 14//10 18//10
f 15//8 16//8 1//1
f 1//1 16//8 2//1
f 15//9 1//9 17//9
f 2//10 16//10 18//10
