v 0 1 1
v 0 -1 1
v 0.464723 1 0.885456
v 0.464723 -1 0.885456
v 0.822984 1 0.568065
v 0.822984 -1 0.568065
v 0.992709 1 0.120537
v 0.992709 -1 0.120537
v 0.935016 1 -0.354605
v 0.935016 -1 -0.354605
v 0.663123 1 -0.748511
v 0.663123 -1 -0.748511
v 0.239316 1 -0.970942
v 0.239316 -1 -0.970942
v -0.239316 1 -0.970942
v -0.239316 -1 -0.970942
v -0.663123 1 -0.748511
v -0.663123 -1 -0.748511
v -0.935016 1 -0.354605
v -0.935016 -1 -0.354605
v -0.992709 1 0.120537
v -0.992709 -1 0.120537
v -0.822984 1 0.568065
v -0.822984 -1 0.568065
v -0.464723 1 0.885456
v -0.464723 -1 0.885456
v 0 1 0
v 0 -1 0
vn 0 0 1
vn 0.464723 0 0.885456
vn 0.822984 0 0.568065
vn 0.992709 0 0.120537
vn 0.935016 0 -0.354605
vn 0.663123 0 -0.748511
vn 0.239316 0 -0.970942
vn -0.239316 0 -0.970942
vn -0.663123 0 -0.748511
vn -0.935016 0 -0.354605
vn -0.992709 0 0.120537
vn -0.822984 0 0.568065
vn -0.464723 0 0.885456
vn 0 1 0
vn 0 -1 0
f 1//1 2//1 3//2
f 3//2 2//1 4//2
f 1//14 3//14 27//14
f 4//15 2//15 28//15
f 3//2 4//2 5//3
f 5//3 4//2 6//3
f 3//14 5//14 27//14
f 6//15 4//15 28//15
f 5//3 6//3 7//4
f 7//4 6//3 8//4
f 5//14 7//14 27//14
f 8//15 6//15 28//15
f 7//4 8//4 9//5
f 9//5 8//4 10//5
f 7//14 9//14 27//14
f 10//15 8//15 28//15
f 9//5 10//5 11//6
f 11//6 10//5 12//6
f 9//14 11//14 27//14
f 12//15 10//15 28//15
f 11//6 12//6 13//7
f 13//7 12//6 14//7
f 11//14 13//14 27//14
f 14//15 12//15 28//15
f 13//7 14//7 15//8
f 15//8 14//7 16//8
f 13//14 15//14 27//14
f 16//15 14//15 28//15
f 15//8 16//8 17//9
f 17//9 16//8 18//9
f 15//14 17//14 27//14
f 18//15 16//15 28//15
f 17//9 18//9 19//10
f 19//10 18//9 20//10
f 17//14 19//14 27//14
f 20//15 18//15 28//15
f 19//10 20//10 21//11
f 21//11 20//10 22//11
f 19//14 21//14 27//14
f 22//15 20//15 28//15
f 21//11 22//11 23//12
f 23//12 22//11 24//12
f 21//14 23//14 27//14
f 24//15 22//15 28//15
f 23//12 24//12 25//13
f 25//13 24//12 26//13
f 23//14 25//14 27//14
f 26//15 24//15 28//15
f 25//13 26//13 1//1
f 1//1 26//13 2//1
f 25//14 1//14 27//14
f 2//15 26//15 28//15
