v 0 1 1
v 0 -1 1
v 0.5 1 0.866025
v 0.5 -1 0.866025
v 0.866025 1 0.5
v 0.866025 -1 0.5
v 1 1 1.49941e-13
v 1 -1 1.49941e-13
v 0.866025 1 -0.5
v 0.866025 -1 -0.5
v 0.5 1 -0.866025
v 0.5 -1 -0.866025
v 2.99883e-13 1 -1
v 2.99883e-13 -1 -1
v -0.5 1 -0.866025
v -0.5 -1 -0.866025
v -0.866025 1 -0.5
v -0.866025 -1 -0.5
v -1 1 -4.49602e-13
v -1 -1 -4.49602e-13
v -0.866025 1 0.5
v -0.866025 -1 0.5
v -0.5 1 0.866025
v -0.5 -1 0.866025
v 0 1 0
v 0 -1 0
vn 0 0 1
vn 0.5 0 0.866025
vn 0.866025 0 0.5
vn 1 0 1.49941e-13
vn 0.866025 0 -0.5
vn 0.5 0 -0.866025
vn 2.99883e-13 0 -1
vn -0.5 0 -0.866025
vn -0.866025 0 -0.5
vn -1 0 -4.49602e-13
vn -0.866025 0 0.5
vn -0.5 0 0.866025
vn 0 1 0
vn 0 -1 0
f 1//1 2//1 3//2
f 3//2 2//1 4//2
f 1//13 3//13 25//13
f 4//14 2//14 26//14
f 3//2 4//2 5//3
f 5//3 4//2 6//3
f 3//13 5//13 25//13
f 6//14 4//14 26//14
f 5//3 6//3 7//4
f 7//4 6//3 8//4
f 5//13 7//13 25//13
f 8//14 6//14 26//14
f 7//4 8//4 9//5
f 9//5 8//4 10//5
f 7//13 9//13 25//13
f 10//14 8//14 26//14
f 9//5 10//5 11//6
f 11//6 10//5 12//6
f 9//13 11//13 25//13
f 12//14 10//14 26//14
f 11//6 12//6 13//7
f 13//7 12//6 14//7
f 11//13 13//13 25//13
f 14//14 12//14 26//14
f 13//7 14//7 15//8
f 15//8 14//7 16//8
f 13//13 15//13 25//13
f 16//14 14//14 26//14
f 15//8 16//8 17//9
f 17//9 16//8 18//9
f 15//13 17//13 25//13
f 18//14 16//14 26//14
f 17//9 18//9 19//10
f 19//10 18//9 20//10
f 17//13 19//13 25//13
f 20//14 18//14 26//14
f 19//10 20//10 21//11
f 21//11 20//10 22//11
f 19//13 21//13 25//13
f 22//14 20//14 26//14
f 21//11 22//11 23//12
f 23//12 22//11 24//12
f 21//13 23//13 25//13
f 24//14 22//14 26//14
f 23//12 24//12 1//1
f 1//1 24//12 2//1
f 23//13 1//13 25//13
f 2//14 24//14 26//14
