# 
# Wavefront OBJ file
# Converted by the DEEP Exploration Deep Exploration 6.3 x64 6.3.3.8069
# Right Hemisphere, LTD
# http://www.righthemisphere.com/
# 
mtllib handle.mtl
# object object #0
g object__0
v 1.75000 19.95000 -31.60000
v 1.75000 48.35000 -40.90000
v -1.75000 48.35000 -40.90000
v -1.75000 19.95000 -31.60000
v 1.75000 48.35000 -33.50000
v -1.75000 48.35000 -33.50000
v 1.75000 53.95000 -35.40000
v 1.75000 53.95000 -56.10000
v -1.75000 53.95000 -56.10000
v -1.75000 53.95000 -35.40000
v 1.75000 47.95000 -51.70000
v -1.75000 47.95000 -51.70000
v 1.75000 47.95000 -46.70000
v -1.75000 47.95000 -46.70000
v 1.75000 15.75000 -35.80000
v -1.75000 15.75000 -35.80000
v 1.75000 48.35000 40.90000
v 1.75000 19.95000 31.50000
v -1.75000 48.35000 40.90000
v -1.75000 19.95000 31.50000
v 1.75000 48.35000 33.60000
v -1.75000 48.35000 33.60000
v 1.75000 53.95000 56.10000
v 1.75000 53.95000 35.50000
v -1.75000 53.95000 56.10000
v -1.75000 53.95000 35.50000
v 1.75000 47.95000 51.70000
v -1.75000 47.95000 51.70000
v 1.75000 47.95000 46.70000
v -1.75000 47.95000 46.70000
v 1.75000 15.75000 35.80000
v -1.75000 15.75000 35.80000
# 32 verticies
vt 0.82920 0.81380
vt 0.83260 0.92400
vt 0.85530 0.92400
vt 0.85870 0.81380
vt 0.72560 0.93880
vt 0.78650 0.93880
vt 0.78650 0.95100
vt 0.72560 0.95100
vt 0.79360 0.98210
vt 0.62340 0.98210
vt 0.62340 0.96990
vt 0.79360 0.96990
vt 0.83570 0.94570
vt 0.83500 0.92240
vt 0.85300 0.92240
vt 0.85220 0.94570
vt 0.63680 0.93880
vt 0.67790 0.93880
vt 0.67790 0.95100
vt 0.63680 0.95100
vt 0.83400 0.92240
vt 0.83100 0.79750
vt 0.85690 0.79750
vt 0.85390 0.92240
vt 0.83080 0.94570
vt 0.83010 0.92400
vt 0.85710 0.94570
vt 0.85780 0.92400
vt 0.91940 0.92400
vt 0.92270 0.81380
vt 0.89660 0.92400
vt 0.89320 0.81380
vt 0.63500 0.91530
vt 0.69500 0.91530
vt 0.63500 0.92760
vt 0.69500 0.92760
vt 0.99060 0.98210
vt 0.82120 0.98210
vt 0.99060 0.96990
vt 0.82120 0.96990
vt 0.91700 0.92240
vt 0.91630 0.94570
vt 0.89900 0.92240
vt 0.89970 0.94570
vt 0.74270 0.91530
vt 0.78380 0.91530
vt 0.74270 0.92760
vt 0.78380 0.92760
vt 0.92100 0.79750
vt 0.91790 0.92240
vt 0.89500 0.79750
vt 0.89800 0.92240
vt 0.92110 0.94570
vt 0.92180 0.92400
vt 0.89490 0.94570
vt 0.89410 0.92400
# 56 texture verticies
vn 0.00000 0.31121 0.95034
vn 0.00000 -1.00000 0.00000
vn 0.00000 1.00000 0.00000
vn 0.00000 -0.59139 -0.80639
vn 0.00000 -0.32060 -0.94721
vn 1.00000 0.00000 0.00000
vn -1.00000 0.00000 0.00000
vn 0.00000 0.31422 -0.94935
vn 0.00000 -0.59139 0.80639
vn 0.00000 -0.32060 0.94721
# 10 normals
usemtl Explorer_Default
f  1/1/1 2/2/1 3/3/1
f  1/1/1 3/3/1 4/4/1
f  2/5/2 5/6/2 6/7/2
f  2/5/2 6/7/2 3/8/2
f  7/9/3 8/10/3 9/11/3
f  7/9/3 9/11/3 10/12/3
f  8/13/4 11/14/4 12/15/4
f  8/13/4 12/15/4 9/16/4
f  11/17/2 13/18/2 14/19/2
f  11/17/2 14/19/2 12/20/2
f  13/21/5 15/22/5 16/23/5
f  13/21/5 16/23/5 14/24/5
f  7/25/6 11/14/6 8/13/6
f  7/25/6 13/21/6 11/14/6
f  13/21/6 1/1/6 15/22/6
f  13/21/6 2/2/6 1/1/6
f  7/25/6 2/2/6 13/21/6
f  5/26/6 2/2/6 7/25/6
f  10/27/7 9/16/7 12/15/7
f  10/27/7 12/15/7 14/24/7
f  14/24/7 16/23/7 4/4/7
f  14/24/7 4/4/7 3/3/7
f  10/27/7 14/24/7 3/3/7
f  6/28/7 10/27/7 3/3/7
f  17/29/8 18/30/8 19/31/8
f  19/31/8 18/30/8 20/32/8
f  21/33/2 17/34/2 22/35/2
f  22/35/2 17/34/2 19/36/2
f  23/37/3 24/38/3 25/39/3
f  25/39/3 24/38/3 26/40/3
f  27/41/9 23/42/9 28/43/9
f  28/43/9 23/42/9 25/44/9
f  29/45/2 27/46/2 30/47/2
f  30/47/2 27/46/2 28/48/2
f  31/49/10 29/50/10 32/51/10
f  32/51/10 29/50/10 30/52/10
f  27/41/6 24/53/6 23/42/6
f  29/50/6 24/53/6 27/41/6
f  18/30/6 29/50/6 31/49/6
f  17/29/6 29/50/6 18/30/6
f  17/29/6 24/53/6 29/50/6
f  17/29/6 21/54/6 24/53/6
f  25/44/7 26/55/7 28/43/7
f  28/43/7 26/55/7 30/52/7
f  32/51/7 30/52/7 20/32/7
f  20/32/7 30/52/7 19/31/7
f  30/52/7 26/55/7 19/31/7
f  26/55/7 22/56/7 19/31/7
